<svg width="60" height="60" viewBox="0 0 60 60" fill="none" xmlns="http://www.w3.org/2000/svg">
<circle cx="30" cy="30" r="30" fill="white"/>
<g clip-path="url(#clip0_4386_14912)">
<path d="M29.948 15.9921L14.5022 22.0295C14.4636 22.0454 14.4307 22.0724 14.4076 22.1071C14.3846 22.1418 14.3725 22.1826 14.3728 22.2243V25.3871C14.3719 25.4411 14.3923 25.4933 14.4296 25.5322C14.467 25.5712 14.5182 25.5938 14.5722 25.5952H45.4644C45.5184 25.594 45.5698 25.5714 45.6072 25.5324C45.6447 25.4934 45.6652 25.4412 45.6642 25.3871V22.2243C45.6646 22.1826 45.6525 22.1418 45.6294 22.1071C45.6064 22.0724 45.5735 22.0454 45.5349 22.0295L30.0886 15.9921C30.0433 15.9747 29.9932 15.9747 29.948 15.9921Z" fill="black"/>
<path d="M20.2237 27.0302H15.5796V26.0923H20.2237V27.0302Z" fill="white"/>
<path d="M19.7397 41.1771H16.0862L16.3504 27.0239H19.476L19.7397 41.1771Z" fill="black"/>
<path d="M28.2796 27.0302H23.6355V26.0923H28.2796V27.0302Z" fill="white"/>
<path d="M27.7959 41.1771H24.1423L24.4066 27.0239H27.5316L27.7959 41.1771Z" fill="black"/>
<path d="M36.3595 27.0302H31.7153V26.0923H36.3595V27.0302Z" fill="white"/>
<path d="M35.8755 41.1771H32.2219L32.4862 27.0239H35.6117L35.8755 41.1771Z" fill="black"/>
<path d="M44.4163 27.0302H39.7727V26.0923H44.4163V27.0302Z" fill="white"/>
<path d="M43.9309 41.1769H40.2769L40.5411 27.0237H43.6667L43.9309 41.1769Z" fill="black"/>
<path d="M45.5319 44.1556H14.2783V43.6572H45.5319V44.1556Z" fill="white"/>
<path d="M15.5796 41.1963V42.1209H20.2237V41.1963H15.5796Z" fill="black"/>
<path d="M15.5796 42.7439H20.2237V42.1213H15.5796V42.7439Z" fill="white"/>
<path d="M23.6355 42.7439H28.2796V42.1213H23.6355V42.7439Z" fill="white"/>
<path d="M23.635 41.1963V42.1209H28.2791V41.1963H23.635Z" fill="black"/>
<path d="M31.7163 42.7439H36.3604V42.1213H31.7163V42.7439Z" fill="white"/>
<path d="M31.7163 41.1963V42.1209H36.3604V41.1963H31.7163Z" fill="black"/>
<path d="M44.4163 41.1963H39.7727V42.1209H44.4163V41.1963Z" fill="black"/>
<path d="M39.7727 42.1213V42.7439H44.4163V42.1213H39.7727Z" fill="white"/>
<path d="M45.5338 43.6799H14.3027V42.7419H45.5338V43.6799Z" fill="black"/>
<path d="M44.9716 26.095L14.9954 26.095V25.5967L44.9716 25.5967V26.095Z" fill="black"/>
</g>
<defs>
<clipPath id="clip0_4386_14912">
<rect width="31.4856" height="28.2144" fill="white" transform="translate(14.2285 15.9597)"/>
</clipPath>
</defs>
</svg>
