<svg width="27" height="44" viewBox="0 0 27 44" fill="none" xmlns="http://www.w3.org/2000/svg">
<g opacity="0.3">
<mask id="path-1-inside-1_4358_13254" fill="white">
<path d="M13.4518 44H13.5C20.9424 44 27 37.092 27 28.6V15.4C27 6.9498 20.9694 0.0572 13.5366 0C13.5251 0 13.5116 0 13.5 0C13.4961 0 13.4691 0 13.4653 0C13.4479 0 13.4344 0 13.4209 0C6.01521 0.0484 0 6.9454 0 15.4V28.6C0 37.092 6.0345 44 13.4518 44ZM3.85714 15.4C3.85714 9.3478 8.17329 4.4132 13.4711 4.4C18.8036 4.4132 23.1429 9.3478 23.1429 15.4V28.6C23.1429 34.6654 18.8171 39.6 13.5 39.6H13.4518C8.073 39.6 3.85714 34.7688 3.85714 28.6V15.4Z"/>
</mask>
<path d="M13.4518 44H13.5C20.9424 44 27 37.092 27 28.6V15.4C27 6.9498 20.9694 0.0572 13.5366 0C13.5251 0 13.5116 0 13.5 0C13.4961 0 13.4691 0 13.4653 0C13.4479 0 13.4344 0 13.4209 0C6.01521 0.0484 0 6.9454 0 15.4V28.6C0 37.092 6.0345 44 13.4518 44ZM3.85714 15.4C3.85714 9.3478 8.17329 4.4132 13.4711 4.4C18.8036 4.4132 23.1429 9.3478 23.1429 15.4V28.6C23.1429 34.6654 18.8171 39.6 13.5 39.6H13.4518C8.073 39.6 3.85714 34.7688 3.85714 28.6V15.4Z" fill="white"/>
<path d="M13.5366 0L13.5751 -4.99985L13.5559 -5H13.5366V0ZM13.4209 0V-5H13.4046L13.3883 -4.99989L13.4209 0ZM13.4711 4.4L13.4834 -0.599985L13.471 -0.600015L13.4586 -0.599984L13.4711 4.4ZM13.4518 49H13.5V39H13.4518V49ZM13.5 49C24.3015 49 32 39.2151 32 28.6H22C22 34.9689 17.5832 39 13.5 39V49ZM32 28.6V15.4H22V28.6H32ZM32 15.4C32 4.81373 24.3269 -4.91711 13.5751 -4.99985L13.4982 4.99985C17.6118 5.03151 22 9.08587 22 15.4H32ZM13.5366 -5C13.5366 -5 13.5366 -5 13.5366 -5C13.5366 -5 13.5365 -5 13.5365 -5C13.5365 -5 13.5365 -5 13.5364 -5C13.5364 -5 13.5364 -5 13.5364 -5C13.5363 -5 13.5363 -5 13.5363 -5C13.5363 -5 13.5363 -5 13.5362 -5C13.5362 -5 13.5362 -5 13.5362 -5C13.5361 -5 13.5361 -5 13.5361 -5C13.5361 -5 13.5361 -5 13.536 -5C13.536 -5 13.536 -5 13.536 -5C13.5359 -5 13.5359 -5 13.5359 -5C13.5359 -5 13.5358 -5 13.5358 -5C13.5358 -5 13.5358 -5 13.5358 -5C13.5357 -5 13.5357 -5 13.5357 -5C13.5357 -5 13.5356 -5 13.5356 -5C13.5356 -5 13.5356 -5 13.5356 -5C13.5355 -5 13.5355 -5 13.5355 -5C13.5355 -5 13.5354 -5 13.5354 -5C13.5354 -5 13.5354 -5 13.5353 -5C13.5353 -5 13.5353 -5 13.5353 -5C13.5353 -5 13.5352 -5 13.5352 -5C13.5352 -5 13.5352 -5 13.5351 -5C13.5351 -5 13.5351 -5 13.5351 -5C13.535 -5 13.535 -5 13.535 -5C13.535 -5 13.535 -5 13.5349 -5C13.5349 -5 13.5349 -5 13.5349 -5C13.5348 -5 13.5348 -5 13.5348 -5C13.5348 -5 13.5347 -5 13.5347 -5C13.5347 -5 13.5347 -5 13.5347 -5C13.5346 -5 13.5346 -5 13.5346 -5C13.5346 -5 13.5345 -5 13.5345 -5C13.5345 -5 13.5345 -5 13.5345 -5C13.5344 -5 13.5344 -5 13.5344 -5C13.5344 -5 13.5343 -5 13.5343 -5C13.5343 -5 13.5343 -5 13.5342 -5C13.5342 -5 13.5342 -5 13.5342 -5C13.5342 -5 13.5341 -5 13.5341 -5C13.5341 -5 13.5341 -5 13.534 -5C13.534 -5 13.534 -5 13.534 -5C13.5339 -5 13.5339 -5 13.5339 -5C13.5339 -5 13.5339 -5 13.5338 -5C13.5338 -5 13.5338 -5 13.5338 -5C13.5337 -5 13.5337 -5 13.5337 -5C13.5337 -5 13.5336 -5 13.5336 -5C13.5336 -5 13.5336 -5 13.5335 -5C13.5335 -5 13.5335 -5 13.5335 -5C13.5335 -5 13.5334 -5 13.5334 -5C13.5334 -5 13.5334 -5 13.5333 -5C13.5333 -5 13.5333 -5 13.5333 -5C13.5332 -5 13.5332 -5 13.5332 -5C13.5332 -5 13.5332 -5 13.5331 -5C13.5331 -5 13.5331 -5 13.5331 -5C13.533 -5 13.533 -5 13.533 -5C13.533 -5 13.5329 -5 13.5329 -5C13.5329 -5 13.5329 -5 13.5329 -5C13.5328 -5 13.5328 -5 13.5328 -5C13.5328 -5 13.5327 -5 13.5327 -5C13.5327 -5 13.5327 -5 13.5326 -5C13.5326 -5 13.5326 -5 13.5326 -5C13.5325 -5 13.5325 -5 13.5325 -5C13.5325 -5 13.5325 -5 13.5324 -5C13.5324 -5 13.5324 -5 13.5324 -5C13.5323 -5 13.5323 -5 13.5323 -5C13.5323 -5 13.5322 -5 13.5322 -5C13.5322 -5 13.5322 -5 13.5321 -5C13.5321 -5 13.5321 -5 13.5321 -5C13.5321 -5 13.532 -5 13.532 -5C13.532 -5 13.532 -5 13.5319 -5C13.5319 -5 13.5319 -5 13.5319 -5C13.5318 -5 13.5318 -5 13.5318 -5C13.5318 -5 13.5318 -5 13.5317 -5C13.5317 -5 13.5317 -5 13.5317 -5C13.5316 -5 13.5316 -5 13.5316 -5C13.5316 -5 13.5315 -5 13.5315 -5C13.5315 -5 13.5315 -5 13.5314 -5C13.5314 -5 13.5314 -5 13.5314 -5C13.5314 -5 13.5313 -5 13.5313 -5C13.5313 -5 13.5313 -5 13.5312 -5C13.5312 -5 13.5312 -5 13.5312 -5C13.5311 -5 13.5311 -5 13.5311 -5C13.5311 -5 13.531 -5 13.531 -5C13.531 -5 13.531 -5 13.5309 -5C13.5309 -5 13.5309 -5 13.5309 -5C13.5309 -5 13.5308 -5 13.5308 -5C13.5308 -5 13.5308 -5 13.5307 -5C13.5307 -5 13.5307 -5 13.5307 -5C13.5306 -5 13.5306 -5 13.5306 -5C13.5306 -5 13.5305 -5 13.5305 -5C13.5305 -5 13.5305 -5 13.5305 -5C13.5304 -5 13.5304 -5 13.5304 -5C13.5304 -5 13.5303 -5 13.5303 -5C13.5303 -5 13.5303 -5 13.5302 -5C13.5302 -5 13.5302 -5 13.5302 -5C13.5301 -5 13.5301 -5 13.5301 -5C13.5301 -5 13.5301 -5 13.53 -5C13.53 -5 13.53 -5 13.53 -5C13.5299 -5 13.5299 -5 13.5299 -5C13.5299 -5 13.5298 -5 13.5298 -5C13.5298 -5 13.5298 -5 13.5297 -5C13.5297 -5 13.5297 -5 13.5297 -5C13.5296 -5 13.5296 -5 13.5296 -5C13.5296 -5 13.5296 -5 13.5295 -5C13.5295 -5 13.5295 -5 13.5295 -5C13.5294 -5 13.5294 -5 13.5294 -5C13.5294 -5 13.5293 -5 13.5293 -5C13.5293 -5 13.5293 -5 13.5292 -5C13.5292 -5 13.5292 -5 13.5292 -5C13.5291 -5 13.5291 -5 13.5291 -5C13.5291 -5 13.5291 -5 13.529 -5C13.529 -5 13.529 -5 13.529 -5C13.5289 -5 13.5289 -5 13.5289 -5C13.5289 -5 13.5288 -5 13.5288 -5C13.5288 -5 13.5288 -5 13.5287 -5C13.5287 -5 13.5287 -5 13.5287 -5C13.5286 -5 13.5286 -5 13.5286 -5C13.5286 -5 13.5285 -5 13.5285 -5C13.5285 -5 13.5285 -5 13.5285 -5C13.5284 -5 13.5284 -5 13.5284 -5C13.5284 -5 13.5283 -5 13.5283 -5C13.5283 -5 13.5283 -5 13.5282 -5C13.5282 -5 13.5282 -5 13.5282 -5C13.5281 -5 13.5281 -5 13.5281 -5C13.5281 -5 13.528 -5 13.528 -5C13.528 -5 13.528 -5 13.528 -5C13.5279 -5 13.5279 -5 13.5279 -5C13.5279 -5 13.5278 -5 13.5278 -5C13.5278 -5 13.5278 -5 13.5277 -5C13.5277 -5 13.5277 -5 13.5277 -5C13.5276 -5 13.5276 -5 13.5276 -5C13.5276 -5 13.5275 -5 13.5275 -5C13.5275 -5 13.5275 -5 13.5274 -5C13.5274 -5 13.5274 -5 13.5274 -5C13.5273 -5 13.5273 -5 13.5273 -5C13.5273 -5 13.5273 -5 13.5272 -5C13.5272 -5 13.5272 -5 13.5272 -5C13.5271 -5 13.5271 -5 13.5271 -5C13.5271 -5 13.527 -5 13.527 -5C13.527 -5 13.527 -5 13.5269 -5C13.5269 -5 13.5269 -5 13.5269 -5C13.5268 -5 13.5268 -5 13.5268 -5C13.5268 -5 13.5267 -5 13.5267 -5C13.5267 -5 13.5267 -5 13.5267 -5C13.5266 -5 13.5266 -5 13.5266 -5C13.5266 -5 13.5265 -5 13.5265 -5C13.5265 -5 13.5265 -5 13.5264 -5C13.5264 -5 13.5264 -5 13.5264 -5C13.5263 -5 13.5263 -5 13.5263 -5C13.5263 -5 13.5262 -5 13.5262 -5C13.5262 -5 13.5262 -5 13.5261 -5C13.5261 -5 13.5261 -5 13.5261 -5C13.526 -5 13.526 -5 13.526 -5C13.526 -5 13.526 -5 13.5259 -5C13.5259 -5 13.5259 -5 13.5259 -5C13.5258 -5 13.5258 -5 13.5258 -5C13.5258 -5 13.5257 -5 13.5257 -5C13.5257 -5 13.5257 -5 13.5256 -5C13.5256 -5 13.5256 -5 13.5256 -5C13.5255 -5 13.5255 -5 13.5255 -5C13.5255 -5 13.5254 -5 13.5254 -5C13.5254 -5 13.5254 -5 13.5253 -5C13.5253 -5 13.5253 -5 13.5253 -5C13.5252 -5 13.5252 -5 13.5252 -5C13.5252 -5 13.5252 -5 13.5251 -5C13.5251 -5 13.5251 -5 13.5251 -5C13.525 -5 13.525 -5 13.525 -5C13.525 -5 13.5249 -5 13.5249 -5C13.5249 -5 13.5249 -5 13.5248 -5C13.5248 -5 13.5248 -5 13.5248 -5C13.5247 -5 13.5247 -5 13.5247 -5C13.5247 -5 13.5246 -5 13.5246 -5C13.5246 -5 13.5246 -5 13.5245 -5C13.5245 -5 13.5245 -5 13.5245 -5C13.5244 -5 13.5244 -5 13.5244 -5C13.5244 -5 13.5244 -5 13.5243 -5C13.5243 -5 13.5243 -5 13.5243 -5C13.5242 -5 13.5242 -5 13.5242 -5C13.5242 -5 13.5241 -5 13.5241 -5C13.5241 -5 13.5241 -5 13.524 -5C13.524 -5 13.524 -5 13.524 -5C13.5239 -5 13.5239 -5 13.5239 -5C13.5239 -5 13.5238 -5 13.5238 -5C13.5238 -5 13.5238 -5 13.5237 -5C13.5237 -5 13.5237 -5 13.5237 -5C13.5236 -5 13.5236 -5 13.5236 -5C13.5236 -5 13.5236 -5 13.5235 -5C13.5235 -5 13.5235 -5 13.5235 -5C13.5234 -5 13.5234 -5 13.5234 -5C13.5234 -5 13.5233 -5 13.5233 -5C13.5233 -5 13.5233 -5 13.5232 -5C13.5232 -5 13.5232 -5 13.5232 -5C13.5231 -5 13.5231 -5 13.5231 -5C13.5231 -5 13.523 -5 13.523 -5C13.523 -5 13.523 -5 13.5229 -5C13.5229 -5 13.5229 -5 13.5229 -5C13.5228 -5 13.5228 -5 13.5228 -5C13.5228 -5 13.5227 -5 13.5227 -5C13.5227 -5 13.5227 -5 13.5226 -5C13.5226 -5 13.5226 -5 13.5226 -5C13.5226 -5 13.5225 -5 13.5225 -5C13.5225 -5 13.5225 -5 13.5224 -5C13.5224 -5 13.5224 -5 13.5224 -5C13.5223 -5 13.5223 -5 13.5223 -5C13.5223 -5 13.5222 -5 13.5222 -5C13.5222 -5 13.5222 -5 13.5221 -5C13.5221 -5 13.5221 -5 13.5221 -5C13.522 -5 13.522 -5 13.522 -5C13.522 -5 13.5219 -5 13.5219 -5C13.5219 -5 13.5219 -5 13.5218 -5C13.5218 -5 13.5218 -5 13.5218 -5C13.5217 -5 13.5217 -5 13.5217 -5C13.5217 -5 13.5216 -5 13.5216 -5C13.5216 -5 13.5216 -5 13.5216 -5C13.5215 -5 13.5215 -5 13.5215 -5C13.5215 -5 13.5214 -5 13.5214 -5C13.5214 -5 13.5214 -5 13.5213 -5C13.5213 -5 13.5213 -5 13.5213 -5C13.5212 -5 13.5212 -5 13.5212 -5C13.5212 -5 13.5211 -5 13.5211 -5C13.5211 -5 13.5211 -5 13.521 -5C13.521 -5 13.521 -5 13.521 -5C13.5209 -5 13.5209 -5 13.5209 -5C13.5209 -5 13.5208 -5 13.5208 -5C13.5208 -5 13.5208 -5 13.5207 -5C13.5207 -5 13.5207 -5 13.5207 -5C13.5206 -5 13.5206 -5 13.5206 -5C13.5206 -5 13.5205 -5 13.5205 -5C13.5205 -5 13.5205 -5 13.5205 -5C13.5204 -5 13.5204 -5 13.5204 -5C13.5204 -5 13.5203 -5 13.5203 -5C13.5203 -5 13.5203 -5 13.5202 -5C13.5202 -5 13.5202 -5 13.5202 -5C13.5201 -5 13.5201 -5 13.5201 -5C13.5201 -5 13.52 -5 13.52 -5C13.52 -5 13.52 -5 13.5199 -5C13.5199 -5 13.5199 -5 13.5199 -5C13.5198 -5 13.5198 -5 13.5198 -5C13.5198 -5 13.5197 -5 13.5197 -5C13.5197 -5 13.5197 -5 13.5196 -5C13.5196 -5 13.5196 -5 13.5196 -5C13.5195 -5 13.5195 -5 13.5195 -5C13.5195 -5 13.5194 -5 13.5194 -5C13.5194 -5 13.5194 -5 13.5193 -5C13.5193 -5 13.5193 -5 13.5193 -5C13.5193 -5 13.5192 -5 13.5192 -5C13.5192 -5 13.5192 -5 13.5191 -5C13.5191 -5 13.5191 -5 13.5191 -5C13.519 -5 13.519 -5 13.519 -5C13.519 -5 13.5189 -5 13.5189 -5C13.5189 -5 13.5189 -5 13.5188 -5C13.5188 -5 13.5188 -5 13.5188 -5C13.5187 -5 13.5187 -5 13.5187 -5C13.5187 -5 13.5186 -5 13.5186 -5C13.5186 -5 13.5186 -5 13.5185 -5C13.5185 -5 13.5185 -5 13.5185 -5C13.5184 -5 13.5184 -5 13.5184 -5C13.5184 -5 13.5183 -5 13.5183 -5C13.5183 -5 13.5183 -5 13.5182 -5C13.5182 -5 13.5182 -5 13.5182 -5C13.5181 -5 13.5181 -5 13.5181 -5C13.5181 -5 13.5181 -5 13.518 -5C13.518 -5 13.518 -5 13.518 -5C13.5179 -5 13.5179 -5 13.5179 -5C13.5179 -5 13.5178 -5 13.5178 -5C13.5178 -5 13.5178 -5 13.5177 -5C13.5177 -5 13.5177 -5 13.5177 -5C13.5176 -5 13.5176 -5 13.5176 -5C13.5176 -5 13.5175 -5 13.5175 -5C13.5175 -5 13.5175 -5 13.5174 -5C13.5174 -5 13.5174 -5 13.5174 -5C13.5173 -5 13.5173 -5 13.5173 -5C13.5173 -5 13.5172 -5 13.5172 -5C13.5172 -5 13.5172 -5 13.5171 -5C13.5171 -5 13.5171 -5 13.5171 -5C13.517 -5 13.517 -5 13.517 -5C13.517 -5 13.5169 -5 13.5169 -5C13.5169 -5 13.5169 -5 13.5169 -5C13.5168 -5 13.5168 -5 13.5168 -5C13.5168 -5 13.5167 -5 13.5167 -5C13.5167 -5 13.5167 -5 13.5166 -5C13.5166 -5 13.5166 -5 13.5166 -5C13.5165 -5 13.5165 -5 13.5165 -5C13.5165 -5 13.5164 -5 13.5164 -5C13.5164 -5 13.5164 -5 13.5163 -5C13.5163 -5 13.5163 -5 13.5163 -5C13.5162 -5 13.5162 -5 13.5162 -5C13.5162 -5 13.5161 -5 13.5161 -5C13.5161 -5 13.5161 -5 13.516 -5C13.516 -5 13.516 -5 13.516 -5C13.5159 -5 13.5159 -5 13.5159 -5C13.5159 -5 13.5158 -5 13.5158 -5C13.5158 -5 13.5158 -5 13.5158 -5C13.5157 -5 13.5157 -5 13.5157 -5C13.5157 -5 13.5156 -5 13.5156 -5C13.5156 -5 13.5156 -5 13.5155 -5C13.5155 -5 13.5155 -5 13.5155 -5C13.5154 -5 13.5154 -5 13.5154 -5C13.5154 -5 13.5153 -5 13.5153 -5C13.5153 -5 13.5153 -5 13.5152 -5C13.5152 -5 13.5152 -5 13.5152 -5C13.5151 -5 13.5151 -5 13.5151 -5C13.5151 -5 13.515 -5 13.515 -5C13.515 -5 13.515 -5 13.5149 -5C13.5149 -5 13.5149 -5 13.5149 -5C13.5148 -5 13.5148 -5 13.5148 -5C13.5148 -5 13.5147 -5 13.5147 -5C13.5147 -5 13.5147 -5 13.5147 -5C13.5146 -5 13.5146 -5 13.5146 -5C13.5146 -5 13.5145 -5 13.5145 -5C13.5145 -5 13.5145 -5 13.5144 -5C13.5144 -5 13.5144 -5 13.5144 -5C13.5143 -5 13.5143 -5 13.5143 -5C13.5143 -5 13.5142 -5 13.5142 -5C13.5142 -5 13.5142 -5 13.5141 -5C13.5141 -5 13.5141 -5 13.5141 -5C13.514 -5 13.514 -5 13.514 -5C13.514 -5 13.5139 -5 13.5139 -5C13.5139 -5 13.5139 -5 13.5138 -5C13.5138 -5 13.5138 -5 13.5138 -5C13.5137 -5 13.5137 -5 13.5137 -5C13.5137 -5 13.5137 -5 13.5136 -5C13.5136 -5 13.5136 -5 13.5136 -5C13.5135 -5 13.5135 -5 13.5135 -5C13.5135 -5 13.5134 -5 13.5134 -5C13.5134 -5 13.5134 -5 13.5133 -5C13.5133 -5 13.5133 -5 13.5133 -5C13.5132 -5 13.5132 -5 13.5132 -5C13.5132 -5 13.5131 -5 13.5131 -5C13.5131 -5 13.5131 -5 13.513 -5C13.513 -5 13.513 -5 13.513 -5C13.5129 -5 13.5129 -5 13.5129 -5C13.5129 -5 13.5128 -5 13.5128 -5C13.5128 -5 13.5128 -5 13.5128 -5C13.5127 -5 13.5127 -5 13.5127 -5C13.5127 -5 13.5126 -5 13.5126 -5C13.5126 -5 13.5126 -5 13.5125 -5C13.5125 -5 13.5125 -5 13.5125 -5C13.5124 -5 13.5124 -5 13.5124 -5C13.5124 -5 13.5123 -5 13.5123 -5C13.5123 -5 13.5123 -5 13.5122 -5C13.5122 -5 13.5122 -5 13.5122 -5C13.5121 -5 13.5121 -5 13.5121 -5C13.5121 -5 13.512 -5 13.512 -5C13.512 -5 13.512 -5 13.5119 -5C13.5119 -5 13.5119 -5 13.5119 -5C13.5119 -5 13.5118 -5 13.5118 -5C13.5118 -5 13.5118 -5 13.5117 -5C13.5117 -5 13.5117 -5 13.5117 -5C13.5116 -5 13.5116 -5 13.5116 -5C13.5116 -5 13.5115 -5 13.5115 -5C13.5115 -5 13.5115 -5 13.5114 -5C13.5114 -5 13.5114 -5 13.5114 -5C13.5113 -5 13.5113 -5 13.5113 -5C13.5113 -5 13.5112 -5 13.5112 -5C13.5112 -5 13.5112 -5 13.5111 -5C13.5111 -5 13.5111 -5 13.5111 -5C13.5111 -5 13.511 -5 13.511 -5C13.511 -5 13.511 -5 13.5109 -5C13.5109 -5 13.5109 -5 13.5109 -5C13.5108 -5 13.5108 -5 13.5108 -5C13.5108 -5 13.5107 -5 13.5107 -5C13.5107 -5 13.5107 -5 13.5106 -5C13.5106 -5 13.5106 -5 13.5106 -5C13.5105 -5 13.5105 -5 13.5105 -5C13.5105 -5 13.5104 -5 13.5104 -5C13.5104 -5 13.5104 -5 13.5104 -5C13.5103 -5 13.5103 -5 13.5103 -5C13.5103 -5 13.5102 -5 13.5102 -5C13.5102 -5 13.5102 -5 13.5101 -5C13.5101 -5 13.5101 -5 13.5101 -5C13.51 -5 13.51 -5 13.51 -5C13.51 -5 13.5099 -5 13.5099 -5C13.5099 -5 13.5099 -5 13.5098 -5C13.5098 -5 13.5098 -5 13.5098 -5C13.5097 -5 13.5097 -5 13.5097 -5C13.5097 -5 13.5097 -5 13.5096 -5C13.5096 -5 13.5096 -5 13.5096 -5C13.5095 -5 13.5095 -5 13.5095 -5C13.5095 -5 13.5094 -5 13.5094 -5C13.5094 -5 13.5094 -5 13.5093 -5C13.5093 -5 13.5093 -5 13.5093 -5C13.5092 -5 13.5092 -5 13.5092 -5C13.5092 -5 13.5091 -5 13.5091 -5C13.5091 -5 13.5091 -5 13.5091 -5C13.509 -5 13.509 -5 13.509 -5C13.509 -5 13.5089 -5 13.5089 -5C13.5089 -5 13.5089 -5 13.5088 -5C13.5088 -5 13.5088 -5 13.5088 -5C13.5087 -5 13.5087 -5 13.5087 -5C13.5087 -5 13.5086 -5 13.5086 -5C13.5086 -5 13.5086 -5 13.5085 -5C13.5085 -5 13.5085 -5 13.5085 -5C13.5085 -5 13.5084 -5 13.5084 -5C13.5084 -5 13.5084 -5 13.5083 -5C13.5083 -5 13.5083 -5 13.5083 -5C13.5082 -5 13.5082 -5 13.5082 -5C13.5082 -5 13.5081 -5 13.5081 -5C13.5081 -5 13.5081 -5 13.508 -5C13.508 -5 13.508 -5 13.508 -5C13.5079 -5 13.5079 -5 13.5079 -5C13.5079 -5 13.5079 -5 13.5078 -5C13.5078 -5 13.5078 -5 13.5078 -5C13.5077 -5 13.5077 -5 13.5077 -5C13.5077 -5 13.5076 -5 13.5076 -5C13.5076 -5 13.5076 -5 13.5075 -5C13.5075 -5 13.5075 -5 13.5075 -5C13.5074 -5 13.5074 -5 13.5074 -5C13.5074 -5 13.5074 -5 13.5073 -5C13.5073 -5 13.5073 -5 13.5073 -5C13.5072 -5 13.5072 -5 13.5072 -5C13.5072 -5 13.5071 -5 13.5071 -5C13.5071 -5 13.5071 -5 13.507 -5C13.507 -5 13.507 -5 13.507 -5C13.5069 -5 13.5069 -5 13.5069 -5C13.5069 -5 13.5069 -5 13.5068 -5C13.5068 -5 13.5068 -5 13.5068 -5C13.5067 -5 13.5067 -5 13.5067 -5C13.5067 -5 13.5066 -5 13.5066 -5C13.5066 -5 13.5066 -5 13.5065 -5C13.5065 -5 13.5065 -5 13.5065 -5C13.5064 -5 13.5064 -5 13.5064 -5C13.5064 -5 13.5064 -5 13.5063 -5C13.5063 -5 13.5063 -5 13.5063 -5C13.5062 -5 13.5062 -5 13.5062 -5C13.5062 -5 13.5061 -5 13.5061 -5C13.5061 -5 13.5061 -5 13.506 -5C13.506 -5 13.506 -5 13.506 -5C13.506 -5 13.5059 -5 13.5059 -5C13.5059 -5 13.5059 -5 13.5058 -5C13.5058 -5 13.5058 -5 13.5058 -5C13.5057 -5 13.5057 -5 13.5057 -5C13.5057 -5 13.5056 -5 13.5056 -5C13.5056 -5 13.5056 -5 13.5056 -5C13.5055 -5 13.5055 -5 13.5055 -5C13.5055 -5 13.5054 -5 13.5054 -5C13.5054 -5 13.5054 -5 13.5053 -5C13.5053 -5 13.5053 -5 13.5053 -5C13.5052 -5 13.5052 -5 13.5052 -5C13.5052 -5 13.5051 -5 13.5051 -5C13.5051 -5 13.5051 -5 13.5051 -5C13.505 -5 13.505 -5 13.505 -5C13.505 -5 13.5049 -5 13.5049 -5C13.5049 -5 13.5049 -5 13.5048 -5C13.5048 -5 13.5048 -5 13.5048 -5C13.5048 -5 13.5047 -5 13.5047 -5C13.5047 -5 13.5047 -5 13.5046 -5C13.5046 -5 13.5046 -5 13.5046 -5C13.5045 -5 13.5045 -5 13.5045 -5C13.5045 -5 13.5044 -5 13.5044 -5C13.5044 -5 13.5044 -5 13.5044 -5C13.5043 -5 13.5043 -5 13.5043 -5C13.5043 -5 13.5042 -5 13.5042 -5C13.5042 -5 13.5042 -5 13.5041 -5C13.5041 -5 13.5041 -5 13.5041 -5C13.504 -5 13.504 -5 13.504 -5C13.504 -5 13.504 -5 13.5039 -5C13.5039 -5 13.5039 -5 13.5039 -5C13.5038 -5 13.5038 -5 13.5038 -5C13.5038 -5 13.5037 -5 13.5037 -5C13.5037 -5 13.5037 -5 13.5037 -5C13.5036 -5 13.5036 -5 13.5036 -5C13.5036 -5 13.5035 -5 13.5035 -5C13.5035 -5 13.5035 -5 13.5034 -5C13.5034 -5 13.5034 -5 13.5034 -5C13.5033 -5 13.5033 -5 13.5033 -5C13.5033 -5 13.5033 -5 13.5032 -5C13.5032 -5 13.5032 -5 13.5032 -5C13.5031 -5 13.5031 -5 13.5031 -5C13.5031 -5 13.503 -5 13.503 -5C13.503 -5 13.503 -5 13.503 -5C13.5029 -5 13.5029 -5 13.5029 -5C13.5029 -5 13.5028 -5 13.5028 -5C13.5028 -5 13.5028 -5 13.5027 -5C13.5027 -5 13.5027 -5 13.5027 -5C13.5027 -5 13.5026 -5 13.5026 -5C13.5026 -5 13.5026 -5 13.5025 -5C13.5025 -5 13.5025 -5 13.5025 -5C13.5024 -5 13.5024 -5 13.5024 -5C13.5024 -5 13.5024 -5 13.5023 -5C13.5023 -5 13.5023 -5 13.5023 -5C13.5022 -5 13.5022 -5 13.5022 -5C13.5022 -5 13.5021 -5 13.5021 -5C13.5021 -5 13.5021 -5 13.5021 -5C13.502 -5 13.502 -5 13.502 -5C13.502 -5 13.5019 -5 13.5019 -5C13.5019 -5 13.5019 -5 13.5018 -5C13.5018 -5 13.5018 -5 13.5018 -5C13.5018 -5 13.5017 -5 13.5017 -5C13.5017 -5 13.5017 -5 13.5016 -5C13.5016 -5 13.5016 -5 13.5016 -5C13.5015 -5 13.5015 -5 13.5015 -5C13.5015 -5 13.5015 -5 13.5014 -5C13.5014 -5 13.5014 -5 13.5014 -5C13.5013 -5 13.5013 -5 13.5013 -5C13.5013 -5 13.5013 -5 13.5012 -5C13.5012 -5 13.5012 -5 13.5012 -5C13.5011 -5 13.5011 -5 13.5011 -5C13.5011 -5 13.501 -5 13.501 -5C13.501 -5 13.501 -5 13.501 -5C13.5009 -5 13.5009 -5 13.5009 -5C13.5009 -5 13.5008 -5 13.5008 -5C13.5008 -5 13.5008 -5 13.5007 -5C13.5007 -5 13.5007 -5 13.5007 -5C13.5007 -5 13.5006 -5 13.5006 -5C13.5006 -5 13.5006 -5 13.5005 -5C13.5005 -5 13.5005 -5 13.5005 -5C13.5005 -5 13.5004 -5 13.5004 -5C13.5004 -5 13.5004 -5 13.5003 -5C13.5003 -5 13.5003 -5 13.5003 -5C13.5002 -5 13.5002 -5 13.5002 -5C13.5002 -5 13.5002 -5 13.5001 -5C13.5001 -5 13.5001 -5 13.5001 -5C13.5 -5 13.5 -5 13.5 -5V5C13.5 5 13.5 5 13.5001 5C13.5001 5 13.5001 5 13.5001 5C13.5002 5 13.5002 5 13.5002 5C13.5002 5 13.5002 5 13.5003 5C13.5003 5 13.5003 5 13.5003 5C13.5004 5 13.5004 5 13.5004 5C13.5004 5 13.5005 5 13.5005 5C13.5005 5 13.5005 5 13.5005 5C13.5006 5 13.5006 5 13.5006 5C13.5006 5 13.5007 5 13.5007 5C13.5007 5 13.5007 5 13.5007 5C13.5008 5 13.5008 5 13.5008 5C13.5008 5 13.5009 5 13.5009 5C13.5009 5 13.5009 5 13.501 5C13.501 5 13.501 5 13.501 5C13.501 5 13.5011 5 13.5011 5C13.5011 5 13.5011 5 13.5012 5C13.5012 5 13.5012 5 13.5012 5C13.5013 5 13.5013 5 13.5013 5C13.5013 5 13.5013 5 13.5014 5C13.5014 5 13.5014 5 13.5014 5C13.5015 5 13.5015 5 13.5015 5C13.5015 5 13.5015 5 13.5016 5C13.5016 5 13.5016 5 13.5016 5C13.5017 5 13.5017 5 13.5017 5C13.5017 5 13.5018 5 13.5018 5C13.5018 5 13.5018 5 13.5018 5C13.5019 5 13.5019 5 13.5019 5C13.5019 5 13.502 5 13.502 5C13.502 5 13.502 5 13.5021 5C13.5021 5 13.5021 5 13.5021 5C13.5021 5 13.5022 5 13.5022 5C13.5022 5 13.5022 5 13.5023 5C13.5023 5 13.5023 5 13.5023 5C13.5024 5 13.5024 5 13.5024 5C13.5024 5 13.5024 5 13.5025 5C13.5025 5 13.5025 5 13.5025 5C13.5026 5 13.5026 5 13.5026 5C13.5026 5 13.5027 5 13.5027 5C13.5027 5 13.5027 5 13.5027 5C13.5028 5 13.5028 5 13.5028 5C13.5028 5 13.5029 5 13.5029 5C13.5029 5 13.5029 5 13.503 5C13.503 5 13.503 5 13.503 5C13.503 5 13.5031 5 13.5031 5C13.5031 5 13.5031 5 13.5032 5C13.5032 5 13.5032 5 13.5032 5C13.5033 5 13.5033 5 13.5033 5C13.5033 5 13.5033 5 13.5034 5C13.5034 5 13.5034 5 13.5034 5C13.5035 5 13.5035 5 13.5035 5C13.5035 5 13.5036 5 13.5036 5C13.5036 5 13.5036 5 13.5037 5C13.5037 5 13.5037 5 13.5037 5C13.5037 5 13.5038 5 13.5038 5C13.5038 5 13.5038 5 13.5039 5C13.5039 5 13.5039 5 13.5039 5C13.504 5 13.504 5 13.504 5C13.504 5 13.504 5 13.5041 5C13.5041 5 13.5041 5 13.5041 5C13.5042 5 13.5042 5 13.5042 5C13.5042 5 13.5043 5 13.5043 5C13.5043 5 13.5043 5 13.5044 5C13.5044 5 13.5044 5 13.5044 5C13.5044 5 13.5045 5 13.5045 5C13.5045 5 13.5045 5 13.5046 5C13.5046 5 13.5046 5 13.5046 5C13.5047 5 13.5047 5 13.5047 5C13.5047 5 13.5048 5 13.5048 5C13.5048 5 13.5048 5 13.5048 5C13.5049 5 13.5049 5 13.5049 5C13.5049 5 13.505 5 13.505 5C13.505 5 13.505 5 13.5051 5C13.5051 5 13.5051 5 13.5051 5C13.5051 5 13.5052 5 13.5052 5C13.5052 5 13.5052 5 13.5053 5C13.5053 5 13.5053 5 13.5053 5C13.5054 5 13.5054 5 13.5054 5C13.5054 5 13.5055 5 13.5055 5C13.5055 5 13.5055 5 13.5056 5C13.5056 5 13.5056 5 13.5056 5C13.5056 5 13.5057 5 13.5057 5C13.5057 5 13.5057 5 13.5058 5C13.5058 5 13.5058 5 13.5058 5C13.5059 5 13.5059 5 13.5059 5C13.5059 5 13.506 5 13.506 5C13.506 5 13.506 5 13.506 5C13.5061 5 13.5061 5 13.5061 5C13.5061 5 13.5062 5 13.5062 5C13.5062 5 13.5062 5 13.5063 5C13.5063 5 13.5063 5 13.5063 5C13.5064 5 13.5064 5 13.5064 5C13.5064 5 13.5064 5 13.5065 5C13.5065 5 13.5065 5 13.5065 5C13.5066 5 13.5066 5 13.5066 5C13.5066 5 13.5067 5 13.5067 5C13.5067 5 13.5067 5 13.5068 5C13.5068 5 13.5068 5 13.5068 5C13.5069 5 13.5069 5 13.5069 5C13.5069 5 13.5069 5 13.507 5C13.507 5 13.507 5 13.507 5C13.5071 5 13.5071 5 13.5071 5C13.5071 5 13.5072 5 13.5072 5C13.5072 5 13.5072 5 13.5073 5C13.5073 5 13.5073 5 13.5073 5C13.5074 5 13.5074 5 13.5074 5C13.5074 5 13.5074 5 13.5075 5C13.5075 5 13.5075 5 13.5075 5C13.5076 5 13.5076 5 13.5076 5C13.5076 5 13.5077 5 13.5077 5C13.5077 5 13.5077 5 13.5078 5C13.5078 5 13.5078 5 13.5078 5C13.5079 5 13.5079 5 13.5079 5C13.5079 5 13.5079 5 13.508 5C13.508 5 13.508 5 13.508 5C13.5081 5 13.5081 5 13.5081 5C13.5081 5 13.5082 5 13.5082 5C13.5082 5 13.5082 5 13.5083 5C13.5083 5 13.5083 5 13.5083 5C13.5084 5 13.5084 5 13.5084 5C13.5084 5 13.5085 5 13.5085 5C13.5085 5 13.5085 5 13.5085 5C13.5086 5 13.5086 5 13.5086 5C13.5086 5 13.5087 5 13.5087 5C13.5087 5 13.5087 5 13.5088 5C13.5088 5 13.5088 5 13.5088 5C13.5089 5 13.5089 5 13.5089 5C13.5089 5 13.509 5 13.509 5C13.509 5 13.509 5 13.5091 5C13.5091 5 13.5091 5 13.5091 5C13.5091 5 13.5092 5 13.5092 5C13.5092 5 13.5092 5 13.5093 5C13.5093 5 13.5093 5 13.5093 5C13.5094 5 13.5094 5 13.5094 5C13.5094 5 13.5095 5 13.5095 5C13.5095 5 13.5095 5 13.5096 5C13.5096 5 13.5096 5 13.5096 5C13.5097 5 13.5097 5 13.5097 5C13.5097 5 13.5097 5 13.5098 5C13.5098 5 13.5098 5 13.5098 5C13.5099 5 13.5099 5 13.5099 5C13.5099 5 13.51 5 13.51 5C13.51 5 13.51 5 13.5101 5C13.5101 5 13.5101 5 13.5101 5C13.5102 5 13.5102 5 13.5102 5C13.5102 5 13.5103 5 13.5103 5C13.5103 5 13.5103 5 13.5104 5C13.5104 5 13.5104 5 13.5104 5C13.5104 5 13.5105 5 13.5105 5C13.5105 5 13.5105 5 13.5106 5C13.5106 5 13.5106 5 13.5106 5C13.5107 5 13.5107 5 13.5107 5C13.5107 5 13.5108 5 13.5108 5C13.5108 5 13.5108 5 13.5109 5C13.5109 5 13.5109 5 13.5109 5C13.511 5 13.511 5 13.511 5C13.511 5 13.5111 5 13.5111 5C13.5111 5 13.5111 5 13.5111 5C13.5112 5 13.5112 5 13.5112 5C13.5112 5 13.5113 5 13.5113 5C13.5113 5 13.5113 5 13.5114 5C13.5114 5 13.5114 5 13.5114 5C13.5115 5 13.5115 5 13.5115 5C13.5115 5 13.5116 5 13.5116 5C13.5116 5 13.5116 5 13.5117 5C13.5117 5 13.5117 5 13.5117 5C13.5118 5 13.5118 5 13.5118 5C13.5118 5 13.5119 5 13.5119 5C13.5119 5 13.5119 5 13.5119 5C13.512 5 13.512 5 13.512 5C13.512 5 13.5121 5 13.5121 5C13.5121 5 13.5121 5 13.5122 5C13.5122 5 13.5122 5 13.5122 5C13.5123 5 13.5123 5 13.5123 5C13.5123 5 13.5124 5 13.5124 5C13.5124 5 13.5124 5 13.5125 5C13.5125 5 13.5125 5 13.5125 5C13.5126 5 13.5126 5 13.5126 5C13.5126 5 13.5127 5 13.5127 5C13.5127 5 13.5127 5 13.5128 5C13.5128 5 13.5128 5 13.5128 5C13.5128 5 13.5129 5 13.5129 5C13.5129 5 13.5129 5 13.513 5C13.513 5 13.513 5 13.513 5C13.5131 5 13.5131 5 13.5131 5C13.5131 5 13.5132 5 13.5132 5C13.5132 5 13.5132 5 13.5133 5C13.5133 5 13.5133 5 13.5133 5C13.5134 5 13.5134 5 13.5134 5C13.5134 5 13.5135 5 13.5135 5C13.5135 5 13.5135 5 13.5136 5C13.5136 5 13.5136 5 13.5136 5C13.5137 5 13.5137 5 13.5137 5C13.5137 5 13.5137 5 13.5138 5C13.5138 5 13.5138 5 13.5138 5C13.5139 5 13.5139 5 13.5139 5C13.5139 5 13.514 5 13.514 5C13.514 5 13.514 5 13.5141 5C13.5141 5 13.5141 5 13.5141 5C13.5142 5 13.5142 5 13.5142 5C13.5142 5 13.5143 5 13.5143 5C13.5143 5 13.5143 5 13.5144 5C13.5144 5 13.5144 5 13.5144 5C13.5145 5 13.5145 5 13.5145 5C13.5145 5 13.5146 5 13.5146 5C13.5146 5 13.5146 5 13.5147 5C13.5147 5 13.5147 5 13.5147 5C13.5147 5 13.5148 5 13.5148 5C13.5148 5 13.5148 5 13.5149 5C13.5149 5 13.5149 5 13.5149 5C13.515 5 13.515 5 13.515 5C13.515 5 13.5151 5 13.5151 5C13.5151 5 13.5151 5 13.5152 5C13.5152 5 13.5152 5 13.5152 5C13.5153 5 13.5153 5 13.5153 5C13.5153 5 13.5154 5 13.5154 5C13.5154 5 13.5154 5 13.5155 5C13.5155 5 13.5155 5 13.5155 5C13.5156 5 13.5156 5 13.5156 5C13.5156 5 13.5157 5 13.5157 5C13.5157 5 13.5157 5 13.5158 5C13.5158 5 13.5158 5 13.5158 5C13.5158 5 13.5159 5 13.5159 5C13.5159 5 13.5159 5 13.516 5C13.516 5 13.516 5 13.516 5C13.5161 5 13.5161 5 13.5161 5C13.5161 5 13.5162 5 13.5162 5C13.5162 5 13.5162 5 13.5163 5C13.5163 5 13.5163 5 13.5163 5C13.5164 5 13.5164 5 13.5164 5C13.5164 5 13.5165 5 13.5165 5C13.5165 5 13.5165 5 13.5166 5C13.5166 5 13.5166 5 13.5166 5C13.5167 5 13.5167 5 13.5167 5C13.5167 5 13.5168 5 13.5168 5C13.5168 5 13.5168 5 13.5169 5C13.5169 5 13.5169 5 13.5169 5C13.5169 5 13.517 5 13.517 5C13.517 5 13.517 5 13.5171 5C13.5171 5 13.5171 5 13.5171 5C13.5172 5 13.5172 5 13.5172 5C13.5172 5 13.5173 5 13.5173 5C13.5173 5 13.5173 5 13.5174 5C13.5174 5 13.5174 5 13.5174 5C13.5175 5 13.5175 5 13.5175 5C13.5175 5 13.5176 5 13.5176 5C13.5176 5 13.5176 5 13.5177 5C13.5177 5 13.5177 5 13.5177 5C13.5178 5 13.5178 5 13.5178 5C13.5178 5 13.5179 5 13.5179 5C13.5179 5 13.5179 5 13.518 5C13.518 5 13.518 5 13.518 5C13.5181 5 13.5181 5 13.5181 5C13.5181 5 13.5181 5 13.5182 5C13.5182 5 13.5182 5 13.5182 5C13.5183 5 13.5183 5 13.5183 5C13.5183 5 13.5184 5 13.5184 5C13.5184 5 13.5184 5 13.5185 5C13.5185 5 13.5185 5 13.5185 5C13.5186 5 13.5186 5 13.5186 5C13.5186 5 13.5187 5 13.5187 5C13.5187 5 13.5187 5 13.5188 5C13.5188 5 13.5188 5 13.5188 5C13.5189 5 13.5189 5 13.5189 5C13.5189 5 13.519 5 13.519 5C13.519 5 13.519 5 13.5191 5C13.5191 5 13.5191 5 13.5191 5C13.5192 5 13.5192 5 13.5192 5C13.5192 5 13.5193 5 13.5193 5C13.5193 5 13.5193 5 13.5193 5C13.5194 5 13.5194 5 13.5194 5C13.5194 5 13.5195 5 13.5195 5C13.5195 5 13.5195 5 13.5196 5C13.5196 5 13.5196 5 13.5196 5C13.5197 5 13.5197 5 13.5197 5C13.5197 5 13.5198 5 13.5198 5C13.5198 5 13.5198 5 13.5199 5C13.5199 5 13.5199 5 13.5199 5C13.52 5 13.52 5 13.52 5C13.52 5 13.5201 5 13.5201 5C13.5201 5 13.5201 5 13.5202 5C13.5202 5 13.5202 5 13.5202 5C13.5203 5 13.5203 5 13.5203 5C13.5203 5 13.5204 5 13.5204 5C13.5204 5 13.5204 5 13.5205 5C13.5205 5 13.5205 5 13.5205 5C13.5205 5 13.5206 5 13.5206 5C13.5206 5 13.5206 5 13.5207 5C13.5207 5 13.5207 5 13.5207 5C13.5208 5 13.5208 5 13.5208 5C13.5208 5 13.5209 5 13.5209 5C13.5209 5 13.5209 5 13.521 5C13.521 5 13.521 5 13.521 5C13.5211 5 13.5211 5 13.5211 5C13.5211 5 13.5212 5 13.5212 5C13.5212 5 13.5212 5 13.5213 5C13.5213 5 13.5213 5 13.5213 5C13.5214 5 13.5214 5 13.5214 5C13.5214 5 13.5215 5 13.5215 5C13.5215 5 13.5215 5 13.5216 5C13.5216 5 13.5216 5 13.5216 5C13.5216 5 13.5217 5 13.5217 5C13.5217 5 13.5217 5 13.5218 5C13.5218 5 13.5218 5 13.5218 5C13.5219 5 13.5219 5 13.5219 5C13.5219 5 13.522 5 13.522 5C13.522 5 13.522 5 13.5221 5C13.5221 5 13.5221 5 13.5221 5C13.5222 5 13.5222 5 13.5222 5C13.5222 5 13.5223 5 13.5223 5C13.5223 5 13.5223 5 13.5224 5C13.5224 5 13.5224 5 13.5224 5C13.5225 5 13.5225 5 13.5225 5C13.5225 5 13.5226 5 13.5226 5C13.5226 5 13.5226 5 13.5226 5C13.5227 5 13.5227 5 13.5227 5C13.5227 5 13.5228 5 13.5228 5C13.5228 5 13.5228 5 13.5229 5C13.5229 5 13.5229 5 13.5229 5C13.523 5 13.523 5 13.523 5C13.523 5 13.5231 5 13.5231 5C13.5231 5 13.5231 5 13.5232 5C13.5232 5 13.5232 5 13.5232 5C13.5233 5 13.5233 5 13.5233 5C13.5233 5 13.5234 5 13.5234 5C13.5234 5 13.5234 5 13.5235 5C13.5235 5 13.5235 5 13.5235 5C13.5236 5 13.5236 5 13.5236 5C13.5236 5 13.5236 5 13.5237 5C13.5237 5 13.5237 5 13.5237 5C13.5238 5 13.5238 5 13.5238 5C13.5238 5 13.5239 5 13.5239 5C13.5239 5 13.5239 5 13.524 5C13.524 5 13.524 5 13.524 5C13.5241 5 13.5241 5 13.5241 5C13.5241 5 13.5242 5 13.5242 5C13.5242 5 13.5242 5 13.5243 5C13.5243 5 13.5243 5 13.5243 5C13.5244 5 13.5244 5 13.5244 5C13.5244 5 13.5244 5 13.5245 5C13.5245 5 13.5245 5 13.5245 5C13.5246 5 13.5246 5 13.5246 5C13.5246 5 13.5247 5 13.5247 5C13.5247 5 13.5247 5 13.5248 5C13.5248 5 13.5248 5 13.5248 5C13.5249 5 13.5249 5 13.5249 5C13.5249 5 13.525 5 13.525 5C13.525 5 13.525 5 13.5251 5C13.5251 5 13.5251 5 13.5251 5C13.5252 5 13.5252 5 13.5252 5C13.5252 5 13.5252 5 13.5253 5C13.5253 5 13.5253 5 13.5253 5C13.5254 5 13.5254 5 13.5254 5C13.5254 5 13.5255 5 13.5255 5C13.5255 5 13.5255 5 13.5256 5C13.5256 5 13.5256 5 13.5256 5C13.5257 5 13.5257 5 13.5257 5C13.5257 5 13.5258 5 13.5258 5C13.5258 5 13.5258 5 13.5259 5C13.5259 5 13.5259 5 13.5259 5C13.526 5 13.526 5 13.526 5C13.526 5 13.526 5 13.5261 5C13.5261 5 13.5261 5 13.5261 5C13.5262 5 13.5262 5 13.5262 5C13.5262 5 13.5263 5 13.5263 5C13.5263 5 13.5263 5 13.5264 5C13.5264 5 13.5264 5 13.5264 5C13.5265 5 13.5265 5 13.5265 5C13.5265 5 13.5266 5 13.5266 5C13.5266 5 13.5266 5 13.5267 5C13.5267 5 13.5267 5 13.5267 5C13.5267 5 13.5268 5 13.5268 5C13.5268 5 13.5268 5 13.5269 5C13.5269 5 13.5269 5 13.5269 5C13.527 5 13.527 5 13.527 5C13.527 5 13.5271 5 13.5271 5C13.5271 5 13.5271 5 13.5272 5C13.5272 5 13.5272 5 13.5272 5C13.5273 5 13.5273 5 13.5273 5C13.5273 5 13.5273 5 13.5274 5C13.5274 5 13.5274 5 13.5274 5C13.5275 5 13.5275 5 13.5275 5C13.5275 5 13.5276 5 13.5276 5C13.5276 5 13.5276 5 13.5277 5C13.5277 5 13.5277 5 13.5277 5C13.5278 5 13.5278 5 13.5278 5C13.5278 5 13.5279 5 13.5279 5C13.5279 5 13.5279 5 13.528 5C13.528 5 13.528 5 13.528 5C13.528 5 13.5281 5 13.5281 5C13.5281 5 13.5281 5 13.5282 5C13.5282 5 13.5282 5 13.5282 5C13.5283 5 13.5283 5 13.5283 5C13.5283 5 13.5284 5 13.5284 5C13.5284 5 13.5284 5 13.5285 5C13.5285 5 13.5285 5 13.5285 5C13.5285 5 13.5286 5 13.5286 5C13.5286 5 13.5286 5 13.5287 5C13.5287 5 13.5287 5 13.5287 5C13.5288 5 13.5288 5 13.5288 5C13.5288 5 13.5289 5 13.5289 5C13.5289 5 13.5289 5 13.529 5C13.529 5 13.529 5 13.529 5C13.5291 5 13.5291 5 13.5291 5C13.5291 5 13.5291 5 13.5292 5C13.5292 5 13.5292 5 13.5292 5C13.5293 5 13.5293 5 13.5293 5C13.5293 5 13.5294 5 13.5294 5C13.5294 5 13.5294 5 13.5295 5C13.5295 5 13.5295 5 13.5295 5C13.5296 5 13.5296 5 13.5296 5C13.5296 5 13.5296 5 13.5297 5C13.5297 5 13.5297 5 13.5297 5C13.5298 5 13.5298 5 13.5298 5C13.5298 5 13.5299 5 13.5299 5C13.5299 5 13.5299 5 13.53 5C13.53 5 13.53 5 13.53 5C13.5301 5 13.5301 5 13.5301 5C13.5301 5 13.5301 5 13.5302 5C13.5302 5 13.5302 5 13.5302 5C13.5303 5 13.5303 5 13.5303 5C13.5303 5 13.5304 5 13.5304 5C13.5304 5 13.5304 5 13.5305 5C13.5305 5 13.5305 5 13.5305 5C13.5305 5 13.5306 5 13.5306 5C13.5306 5 13.5306 5 13.5307 5C13.5307 5 13.5307 5 13.5307 5C13.5308 5 13.5308 5 13.5308 5C13.5308 5 13.5309 5 13.5309 5C13.5309 5 13.5309 5 13.5309 5C13.531 5 13.531 5 13.531 5C13.531 5 13.5311 5 13.5311 5C13.5311 5 13.5311 5 13.5312 5C13.5312 5 13.5312 5 13.5312 5C13.5313 5 13.5313 5 13.5313 5C13.5313 5 13.5314 5 13.5314 5C13.5314 5 13.5314 5 13.5314 5C13.5315 5 13.5315 5 13.5315 5C13.5315 5 13.5316 5 13.5316 5C13.5316 5 13.5316 5 13.5317 5C13.5317 5 13.5317 5 13.5317 5C13.5318 5 13.5318 5 13.5318 5C13.5318 5 13.5318 5 13.5319 5C13.5319 5 13.5319 5 13.5319 5C13.532 5 13.532 5 13.532 5C13.532 5 13.5321 5 13.5321 5C13.5321 5 13.5321 5 13.5321 5C13.5322 5 13.5322 5 13.5322 5C13.5322 5 13.5323 5 13.5323 5C13.5323 5 13.5323 5 13.5324 5C13.5324 5 13.5324 5 13.5324 5C13.5325 5 13.5325 5 13.5325 5C13.5325 5 13.5325 5 13.5326 5C13.5326 5 13.5326 5 13.5326 5C13.5327 5 13.5327 5 13.5327 5C13.5327 5 13.5328 5 13.5328 5C13.5328 5 13.5328 5 13.5329 5C13.5329 5 13.5329 5 13.5329 5C13.5329 5 13.533 5 13.533 5C13.533 5 13.533 5 13.5331 5C13.5331 5 13.5331 5 13.5331 5C13.5332 5 13.5332 5 13.5332 5C13.5332 5 13.5332 5 13.5333 5C13.5333 5 13.5333 5 13.5333 5C13.5334 5 13.5334 5 13.5334 5C13.5334 5 13.5335 5 13.5335 5C13.5335 5 13.5335 5 13.5335 5C13.5336 5 13.5336 5 13.5336 5C13.5336 5 13.5337 5 13.5337 5C13.5337 5 13.5337 5 13.5338 5C13.5338 5 13.5338 5 13.5338 5C13.5339 5 13.5339 5 13.5339 5C13.5339 5 13.5339 5 13.534 5C13.534 5 13.534 5 13.534 5C13.5341 5 13.5341 5 13.5341 5C13.5341 5 13.5342 5 13.5342 5C13.5342 5 13.5342 5 13.5342 5C13.5343 5 13.5343 5 13.5343 5C13.5343 5 13.5344 5 13.5344 5C13.5344 5 13.5344 5 13.5345 5C13.5345 5 13.5345 5 13.5345 5C13.5345 5 13.5346 5 13.5346 5C13.5346 5 13.5346 5 13.5347 5C13.5347 5 13.5347 5 13.5347 5C13.5347 5 13.5348 5 13.5348 5C13.5348 5 13.5348 5 13.5349 5C13.5349 5 13.5349 5 13.5349 5C13.535 5 13.535 5 13.535 5C13.535 5 13.535 5 13.5351 5C13.5351 5 13.5351 5 13.5351 5C13.5352 5 13.5352 5 13.5352 5C13.5352 5 13.5353 5 13.5353 5C13.5353 5 13.5353 5 13.5353 5C13.5354 5 13.5354 5 13.5354 5C13.5354 5 13.5355 5 13.5355 5C13.5355 5 13.5355 5 13.5356 5C13.5356 5 13.5356 5 13.5356 5C13.5356 5 13.5357 5 13.5357 5C13.5357 5 13.5357 5 13.5358 5C13.5358 5 13.5358 5 13.5358 5C13.5358 5 13.5359 5 13.5359 5C13.5359 5 13.5359 5 13.536 5C13.536 5 13.536 5 13.536 5C13.5361 5 13.5361 5 13.5361 5C13.5361 5 13.5361 5 13.5362 5C13.5362 5 13.5362 5 13.5362 5C13.5363 5 13.5363 5 13.5363 5C13.5363 5 13.5363 5 13.5364 5C13.5364 5 13.5364 5 13.5364 5C13.5365 5 13.5365 5 13.5365 5C13.5365 5 13.5366 5 13.5366 5C13.5366 5 13.5366 5 13.5366 5V-5ZM13.5 -5C13.5 -5 13.5 -5 13.5 -5C13.5 -5 13.5 -5 13.5 -5C13.4999 -5 13.4999 -5 13.4999 -5C13.4999 -5 13.4999 -5 13.4999 -5C13.4999 -5 13.4999 -5 13.4999 -5C13.4999 -5 13.4999 -5 13.4999 -5C13.4998 -5 13.4998 -5 13.4998 -5C13.4998 -5 13.4998 -5 13.4998 -5C13.4998 -5 13.4998 -5 13.4998 -5C13.4998 -5 13.4998 -5 13.4997 -5C13.4997 -5 13.4997 -5 13.4997 -5C13.4997 -5 13.4997 -5 13.4997 -5C13.4997 -5 13.4997 -5 13.4997 -5C13.4997 -5 13.4996 -5 13.4996 -5C13.4996 -5 13.4996 -5 13.4996 -5C13.4996 -5 13.4996 -5 13.4996 -5C13.4996 -5 13.4996 -5 13.4995 -5C13.4995 -5 13.4995 -5 13.4995 -5C13.4995 -5 13.4995 -5 13.4995 -5C13.4995 -5 13.4995 -5 13.4994 -5C13.4994 -5 13.4994 -5 13.4994 -5C13.4994 -5 13.4994 -5 13.4994 -5C13.4994 -5 13.4994 -5 13.4993 -5C13.4993 -5 13.4993 -5 13.4993 -5C13.4993 -5 13.4993 -5 13.4993 -5C13.4993 -5 13.4993 -5 13.4992 -5C13.4992 -5 13.4992 -5 13.4992 -5C13.4992 -5 13.4992 -5 13.4992 -5C13.4992 -5 13.4991 -5 13.4991 -5C13.4991 -5 13.4991 -5 13.4991 -5C13.4991 -5 13.4991 -5 13.4991 -5C13.499 -5 13.499 -5 13.499 -5C13.499 -5 13.499 -5 13.499 -5C13.499 -5 13.499 -5 13.4989 -5C13.4989 -5 13.4989 -5 13.4989 -5C13.4989 -5 13.4989 -5 13.4989 -5C13.4988 -5 13.4988 -5 13.4988 -5C13.4988 -5 13.4988 -5 13.4988 -5C13.4988 -5 13.4987 -5 13.4987 -5C13.4987 -5 13.4987 -5 13.4987 -5C13.4987 -5 13.4987 -5 13.4987 -5C13.4986 -5 13.4986 -5 13.4986 -5C13.4986 -5 13.4986 -5 13.4986 -5C13.4986 -5 13.4985 -5 13.4985 -5C13.4985 -5 13.4985 -5 13.4985 -5C13.4985 -5 13.4984 -5 13.4984 -5C13.4984 -5 13.4984 -5 13.4984 -5C13.4984 -5 13.4984 -5 13.4983 -5C13.4983 -5 13.4983 -5 13.4983 -5C13.4983 -5 13.4983 -5 13.4983 -5C13.4982 -5 13.4982 -5 13.4982 -5C13.4982 -5 13.4982 -5 13.4982 -5C13.4981 -5 13.4981 -5 13.4981 -5C13.4981 -5 13.4981 -5 13.4981 -5C13.498 -5 13.498 -5 13.498 -5C13.498 -5 13.498 -5 13.498 -5C13.4979 -5 13.4979 -5 13.4979 -5C13.4979 -5 13.4979 -5 13.4979 -5C13.4978 -5 13.4978 -5 13.4978 -5C13.4978 -5 13.4978 -5 13.4978 -5C13.4977 -5 13.4977 -5 13.4977 -5C13.4977 -5 13.4977 -5 13.4977 -5C13.4976 -5 13.4976 -5 13.4976 -5C13.4976 -5 13.4976 -5 13.4976 -5C13.4975 -5 13.4975 -5 13.4975 -5C13.4975 -5 13.4975 -5 13.4975 -5C13.4974 -5 13.4974 -5 13.4974 -5C13.4974 -5 13.4974 -5 13.4973 -5C13.4973 -5 13.4973 -5 13.4973 -5C13.4973 -5 13.4973 -5 13.4972 -5C13.4972 -5 13.4972 -5 13.4972 -5C13.4972 -5 13.4971 -5 13.4971 -5C13.4971 -5 13.4971 -5 13.4971 -5C13.4971 -5 13.497 -5 13.497 -5C13.497 -5 13.497 -5 13.497 -5C13.4969 -5 13.4969 -5 13.4969 -5C13.4969 -5 13.4969 -5 13.4968 -5C13.4968 -5 13.4968 -5 13.4968 -5C13.4968 -5 13.4968 -5 13.4967 -5C13.4967 -5 13.4967 -5 13.4967 -5C13.4967 -5 13.4966 -5 13.4966 -5C13.4966 -5 13.4966 -5 13.4966 -5C13.4965 -5 13.4965 -5 13.4965 -5C13.4965 -5 13.4965 -5 13.4964 -5C13.4964 -5 13.4964 -5 13.4964 -5C13.4964 -5 13.4963 -5 13.4963 -5C13.4963 -5 13.4963 -5 13.4963 -5C13.4962 -5 13.4962 -5 13.4962 -5C13.4962 -5 13.4962 -5 13.4961 -5C13.4961 -5 13.4961 -5 13.4961 -5C13.4961 -5 13.496 -5 13.496 -5C13.496 -5 13.496 -5 13.4959 -5C13.4959 -5 13.4959 -5 13.4959 -5C13.4959 -5 13.4958 -5 13.4958 -5C13.4958 -5 13.4958 -5 13.4958 -5C13.4957 -5 13.4957 -5 13.4957 -5C13.4957 -5 13.4957 -5 13.4956 -5C13.4956 -5 13.4956 -5 13.4956 -5C13.4955 -5 13.4955 -5 13.4955 -5C13.4955 -5 13.4955 -5 13.4954 -5C13.4954 -5 13.4954 -5 13.4954 -5C13.4953 -5 13.4953 -5 13.4953 -5C13.4953 -5 13.4953 -5 13.4952 -5C13.4952 -5 13.4952 -5 13.4952 -5C13.4952 -5 13.4951 -5 13.4951 -5C13.4951 -5 13.4951 -5 13.495 -5C13.495 -5 13.495 -5 13.495 -5C13.4949 -5 13.4949 -5 13.4949 -5C13.4949 -5 13.4949 -5 13.4948 -5C13.4948 -5 13.4948 -5 13.4948 -5C13.4947 -5 13.4947 -5 13.4947 -5C13.4947 -5 13.4947 -5 13.4946 -5C13.4946 -5 13.4946 -5 13.4946 -5C13.4945 -5 13.4945 -5 13.4945 -5C13.4945 -5 13.4944 -5 13.4944 -5C13.4944 -5 13.4944 -5 13.4944 -5C13.4943 -5 13.4943 -5 13.4943 -5C13.4943 -5 13.4942 -5 13.4942 -5C13.4942 -5 13.4942 -5 13.4941 -5C13.4941 -5 13.4941 -5 13.4941 -5C13.494 -5 13.494 -5 13.494 -5C13.494 -5 13.494 -5 13.4939 -5C13.4939 -5 13.4939 -5 13.4939 -5C13.4938 -5 13.4938 -5 13.4938 -5C13.4938 -5 13.4937 -5 13.4937 -5C13.4937 -5 13.4937 -5 13.4936 -5C13.4936 -5 13.4936 -5 13.4936 -5C13.4935 -5 13.4935 -5 13.4935 -5C13.4935 -5 13.4934 -5 13.4934 -5C13.4934 -5 13.4934 -5 13.4933 -5C13.4933 -5 13.4933 -5 13.4933 -5C13.4932 -5 13.4932 -5 13.4932 -5C13.4932 -5 13.4931 -5 13.4931 -5C13.4931 -5 13.4931 -5 13.493 -5C13.493 -5 13.493 -5 13.493 -5C13.4929 -5 13.4929 -5 13.4929 -5C13.4929 -5 13.4928 -5 13.4928 -5C13.4928 -5 13.4928 -5 13.4927 -5C13.4927 -5 13.4927 -5 13.4927 -5C13.4926 -5 13.4926 -5 13.4926 -5C13.4926 -5 13.4925 -5 13.4925 -5C13.4925 -5 13.4925 -5 13.4924 -5C13.4924 -5 13.4924 -5 13.4924 -5C13.4923 -5 13.4923 -5 13.4923 -5C13.4923 -5 13.4922 -5 13.4922 -5C13.4922 -5 13.4922 -5 13.4921 -5C13.4921 -5 13.4921 -5 13.4921 -5C13.492 -5 13.492 -5 13.492 -5C13.4919 -5 13.4919 -5 13.4919 -5C13.4919 -5 13.4918 -5 13.4918 -5C13.4918 -5 13.4918 -5 13.4917 -5C13.4917 -5 13.4917 -5 13.4917 -5C13.4916 -5 13.4916 -5 13.4916 -5C13.4916 -5 13.4915 -5 13.4915 -5C13.4915 -5 13.4914 -5 13.4914 -5C13.4914 -5 13.4914 -5 13.4913 -5C13.4913 -5 13.4913 -5 13.4913 -5C13.4912 -5 13.4912 -5 13.4912 -5C13.4912 -5 13.4911 -5 13.4911 -5C13.4911 -5 13.491 -5 13.491 -5C13.491 -5 13.491 -5 13.4909 -5C13.4909 -5 13.4909 -5 13.4909 -5C13.4908 -5 13.4908 -5 13.4908 -5C13.4907 -5 13.4907 -5 13.4907 -5C13.4907 -5 13.4906 -5 13.4906 -5C13.4906 -5 13.4906 -5 13.4905 -5C13.4905 -5 13.4905 -5 13.4904 -5C13.4904 -5 13.4904 -5 13.4904 -5C13.4903 -5 13.4903 -5 13.4903 -5C13.4903 -5 13.4902 -5 13.4902 -5C13.4902 -5 13.4901 -5 13.4901 -5C13.4901 -5 13.4901 -5 13.49 -5C13.49 -5 13.49 -5 13.4899 -5C13.4899 -5 13.4899 -5 13.4899 -5C13.4898 -5 13.4898 -5 13.4898 -5C13.4898 -5 13.4897 -5 13.4897 -5C13.4897 -5 13.4896 -5 13.4896 -5C13.4896 -5 13.4896 -5 13.4895 -5C13.4895 -5 13.4895 -5 13.4894 -5C13.4894 -5 13.4894 -5 13.4894 -5C13.4893 -5 13.4893 -5 13.4893 -5C13.4892 -5 13.4892 -5 13.4892 -5C13.4892 -5 13.4891 -5 13.4891 -5C13.4891 -5 13.4891 -5 13.489 -5C13.489 -5 13.489 -5 13.4889 -5C13.4889 -5 13.4889 -5 13.4889 -5C13.4888 -5 13.4888 -5 13.4888 -5C13.4887 -5 13.4887 -5 13.4887 -5C13.4887 -5 13.4886 -5 13.4886 -5C13.4886 -5 13.4885 -5 13.4885 -5C13.4885 -5 13.4885 -5 13.4884 -5C13.4884 -5 13.4884 -5 13.4883 -5C13.4883 -5 13.4883 -5 13.4883 -5C13.4882 -5 13.4882 -5 13.4882 -5C13.4881 -5 13.4881 -5 13.4881 -5C13.4881 -5 13.488 -5 13.488 -5C13.488 -5 13.4879 -5 13.4879 -5C13.4879 -5 13.4878 -5 13.4878 -5C13.4878 -5 13.4878 -5 13.4877 -5C13.4877 -5 13.4877 -5 13.4876 -5C13.4876 -5 13.4876 -5 13.4876 -5C13.4875 -5 13.4875 -5 13.4875 -5C13.4874 -5 13.4874 -5 13.4874 -5C13.4874 -5 13.4873 -5 13.4873 -5C13.4873 -5 13.4872 -5 13.4872 -5C13.4872 -5 13.4871 -5 13.4871 -5C13.4871 -5 13.4871 -5 13.487 -5C13.487 -5 13.487 -5 13.4869 -5C13.4869 -5 13.4869 -5 13.4869 -5C13.4868 -5 13.4868 -5 13.4868 -5C13.4867 -5 13.4867 -5 13.4867 -5C13.4867 -5 13.4866 -5 13.4866 -5C13.4866 -5 13.4865 -5 13.4865 -5C13.4865 -5 13.4864 -5 13.4864 -5C13.4864 -5 13.4864 -5 13.4863 -5C13.4863 -5 13.4863 -5 13.4862 -5C13.4862 -5 13.4862 -5 13.4861 -5C13.4861 -5 13.4861 -5 13.4861 -5C13.486 -5 13.486 -5 13.486 -5C13.4859 -5 13.4859 -5 13.4859 -5C13.4859 -5 13.4858 -5 13.4858 -5C13.4858 -5 13.4857 -5 13.4857 -5C13.4857 -5 13.4856 -5 13.4856 -5C13.4856 -5 13.4856 -5 13.4855 -5C13.4855 -5 13.4855 -5 13.4854 -5C13.4854 -5 13.4854 -5 13.4853 -5C13.4853 -5 13.4853 -5 13.4853 -5C13.4852 -5 13.4852 -5 13.4852 -5C13.4851 -5 13.4851 -5 13.4851 -5C13.485 -5 13.485 -5 13.485 -5C13.485 -5 13.4849 -5 13.4849 -5C13.4849 -5 13.4848 -5 13.4848 -5C13.4848 -5 13.4847 -5 13.4847 -5C13.4847 -5 13.4847 -5 13.4846 -5C13.4846 -5 13.4846 -5 13.4845 -5C13.4845 -5 13.4845 -5 13.4844 -5C13.4844 -5 13.4844 -5 13.4844 -5C13.4843 -5 13.4843 -5 13.4843 -5C13.4842 -5 13.4842 -5 13.4842 -5C13.4841 -5 13.4841 -5 13.4841 -5C13.4841 -5 13.484 -5 13.484 -5C13.484 -5 13.4839 -5 13.4839 -5C13.4839 -5 13.4838 -5 13.4838 -5C13.4838 -5 13.4838 -5 13.4837 -5C13.4837 -5 13.4837 -5 13.4836 -5C13.4836 -5 13.4836 -5 13.4835 -5C13.4835 -5 13.4835 -5 13.4835 -5C13.4834 -5 13.4834 -5 13.4834 -5C13.4833 -5 13.4833 -5 13.4833 -5C13.4832 -5 13.4832 -5 13.4832 -5C13.4832 -5 13.4831 -5 13.4831 -5C13.4831 -5 13.483 -5 13.483 -5C13.483 -5 13.4829 -5 13.4829 -5C13.4829 -5 13.4829 -5 13.4828 -5C13.4828 -5 13.4828 -5 13.4827 -5C13.4827 -5 13.4827 -5 13.4826 -5C13.4826 -5 13.4826 -5 13.4826 -5C13.4825 -5 13.4825 -5 13.4825 -5C13.4824 -5 13.4824 -5 13.4824 -5C13.4823 -5 13.4823 -5 13.4823 -5C13.4823 -5 13.4822 -5 13.4822 -5C13.4822 -5 13.4821 -5 13.4821 -5C13.4821 -5 13.482 -5 13.482 -5C13.482 -5 13.4819 -5 13.4819 -5C13.4819 -5 13.4819 -5 13.4818 -5C13.4818 -5 13.4818 -5 13.4817 -5C13.4817 -5 13.4817 -5 13.4816 -5C13.4816 -5 13.4816 -5 13.4816 -5C13.4815 -5 13.4815 -5 13.4815 -5C13.4814 -5 13.4814 -5 13.4814 -5C13.4813 -5 13.4813 -5 13.4813 -5C13.4813 -5 13.4812 -5 13.4812 -5C13.4812 -5 13.4811 -5 13.4811 -5C13.4811 -5 13.481 -5 13.481 -5C13.481 -5 13.481 -5 13.4809 -5C13.4809 -5 13.4809 -5 13.4808 -5C13.4808 -5 13.4808 -5 13.4807 -5C13.4807 -5 13.4807 -5 13.4807 -5C13.4806 -5 13.4806 -5 13.4806 -5C13.4805 -5 13.4805 -5 13.4805 -5C13.4804 -5 13.4804 -5 13.4804 -5C13.4804 -5 13.4803 -5 13.4803 -5C13.4803 -5 13.4802 -5 13.4802 -5C13.4802 -5 13.4801 -5 13.4801 -5C13.4801 -5 13.4801 -5 13.48 -5C13.48 -5 13.48 -5 13.4799 -5C13.4799 -5 13.4799 -5 13.4799 -5C13.4798 -5 13.4798 -5 13.4798 -5C13.4797 -5 13.4797 -5 13.4797 -5C13.4796 -5 13.4796 -5 13.4796 -5C13.4796 -5 13.4795 -5 13.4795 -5C13.4795 -5 13.4794 -5 13.4794 -5C13.4794 -5 13.4793 -5 13.4793 -5C13.4793 -5 13.4793 -5 13.4792 -5C13.4792 -5 13.4792 -5 13.4791 -5C13.4791 -5 13.4791 -5 13.479 -5C13.479 -5 13.479 -5 13.479 -5C13.4789 -5 13.4789 -5 13.4789 -5C13.4788 -5 13.4788 -5 13.4788 -5C13.4788 -5 13.4787 -5 13.4787 -5C13.4787 -5 13.4786 -5 13.4786 -5C13.4786 -5 13.4785 -5 13.4785 -5C13.4785 -5 13.4785 -5 13.4784 -5C13.4784 -5 13.4784 -5 13.4783 -5C13.4783 -5 13.4783 -5 13.4783 -5C13.4782 -5 13.4782 -5 13.4782 -5C13.4781 -5 13.4781 -5 13.4781 -5C13.478 -5 13.478 -5 13.478 -5C13.478 -5 13.4779 -5 13.4779 -5C13.4779 -5 13.4778 -5 13.4778 -5C13.4778 -5 13.4778 -5 13.4777 -5C13.4777 -5 13.4777 -5 13.4776 -5C13.4776 -5 13.4776 -5 13.4776 -5C13.4775 -5 13.4775 -5 13.4775 -5C13.4774 -5 13.4774 -5 13.4774 -5C13.4774 -5 13.4773 -5 13.4773 -5C13.4773 -5 13.4772 -5 13.4772 -5C13.4772 -5 13.4771 -5 13.4771 -5C13.4771 -5 13.4771 -5 13.477 -5C13.477 -5 13.477 -5 13.4769 -5C13.4769 -5 13.4769 -5 13.4769 -5C13.4768 -5 13.4768 -5 13.4768 -5C13.4767 -5 13.4767 -5 13.4767 -5C13.4767 -5 13.4766 -5 13.4766 -5C13.4766 -5 13.4765 -5 13.4765 -5C13.4765 -5 13.4765 -5 13.4764 -5C13.4764 -5 13.4764 -5 13.4763 -5C13.4763 -5 13.4763 -5 13.4763 -5C13.4762 -5 13.4762 -5 13.4762 -5C13.4761 -5 13.4761 -5 13.4761 -5C13.4761 -5 13.476 -5 13.476 -5C13.476 -5 13.476 -5 13.4759 -5C13.4759 -5 13.4759 -5 13.4758 -5C13.4758 -5 13.4758 -5 13.4758 -5C13.4757 -5 13.4757 -5 13.4757 -5C13.4756 -5 13.4756 -5 13.4756 -5C13.4756 -5 13.4755 -5 13.4755 -5C13.4755 -5 13.4754 -5 13.4754 -5C13.4754 -5 13.4754 -5 13.4753 -5C13.4753 -5 13.4753 -5 13.4753 -5C13.4752 -5 13.4752 -5 13.4752 -5C13.4751 -5 13.4751 -5 13.4751 -5C13.4751 -5 13.475 -5 13.475 -5C13.475 -5 13.475 -5 13.4749 -5C13.4749 -5 13.4749 -5 13.4748 -5C13.4748 -5 13.4748 -5 13.4748 -5C13.4747 -5 13.4747 -5 13.4747 -5C13.4746 -5 13.4746 -5 13.4746 -5C13.4746 -5 13.4745 -5 13.4745 -5C13.4745 -5 13.4745 -5 13.4744 -5C13.4744 -5 13.4744 -5 13.4744 -5C13.4743 -5 13.4743 -5 13.4743 -5C13.4742 -5 13.4742 -5 13.4742 -5C13.4742 -5 13.4741 -5 13.4741 -5C13.4741 -5 13.4741 -5 13.474 -5C13.474 -5 13.474 -5 13.4739 -5C13.4739 -5 13.4739 -5 13.4739 -5C13.4738 -5 13.4738 -5 13.4738 -5C13.4738 -5 13.4737 -5 13.4737 -5C13.4737 -5 13.4737 -5 13.4736 -5C13.4736 -5 13.4736 -5 13.4736 -5C13.4735 -5 13.4735 -5 13.4735 -5C13.4734 -5 13.4734 -5 13.4734 -5C13.4734 -5 13.4733 -5 13.4733 -5C13.4733 -5 13.4733 -5 13.4732 -5C13.4732 -5 13.4732 -5 13.4732 -5C13.4731 -5 13.4731 -5 13.4731 -5C13.4731 -5 13.473 -5 13.473 -5C13.473 -5 13.473 -5 13.4729 -5C13.4729 -5 13.4729 -5 13.4728 -5C13.4728 -5 13.4728 -5 13.4728 -5C13.4727 -5 13.4727 -5 13.4727 -5C13.4727 -5 13.4726 -5 13.4726 -5C13.4726 -5 13.4726 -5 13.4725 -5C13.4725 -5 13.4725 -5 13.4725 -5C13.4724 -5 13.4724 -5 13.4724 -5C13.4724 -5 13.4723 -5 13.4723 -5C13.4723 -5 13.4723 -5 13.4722 -5C13.4722 -5 13.4722 -5 13.4722 -5C13.4721 -5 13.4721 -5 13.4721 -5C13.4721 -5 13.472 -5 13.472 -5C13.472 -5 13.472 -5 13.4719 -5C13.4719 -5 13.4719 -5 13.4719 -5C13.4718 -5 13.4718 -5 13.4718 -5C13.4718 -5 13.4717 -5 13.4717 -5C13.4717 -5 13.4717 -5 13.4716 -5C13.4716 -5 13.4716 -5 13.4716 -5C13.4716 -5 13.4715 -5 13.4715 -5C13.4715 -5 13.4715 -5 13.4714 -5C13.4714 -5 13.4714 -5 13.4714 -5C13.4713 -5 13.4713 -5 13.4713 -5C13.4713 -5 13.4712 -5 13.4712 -5C13.4712 -5 13.4712 -5 13.4711 -5C13.4711 -5 13.4711 -5 13.4711 -5C13.4711 -5 13.471 -5 13.471 -5C13.471 -5 13.471 -5 13.4709 -5C13.4709 -5 13.4709 -5 13.4709 -5C13.4708 -5 13.4708 -5 13.4708 -5C13.4708 -5 13.4707 -5 13.4707 -5C13.4707 -5 13.4707 -5 13.4707 -5C13.4706 -5 13.4706 -5 13.4706 -5C13.4706 -5 13.4705 -5 13.4705 -5C13.4705 -5 13.4705 -5 13.4704 -5C13.4704 -5 13.4704 -5 13.4704 -5C13.4704 -5 13.4703 -5 13.4703 -5C13.4703 -5 13.4703 -5 13.4702 -5C13.4702 -5 13.4702 -5 13.4702 -5C13.4702 -5 13.4701 -5 13.4701 -5C13.4701 -5 13.4701 -5 13.47 -5C13.47 -5 13.47 -5 13.47 -5C13.47 -5 13.4699 -5 13.4699 -5C13.4699 -5 13.4699 -5 13.4698 -5C13.4698 -5 13.4698 -5 13.4698 -5C13.4698 -5 13.4697 -5 13.4697 -5C13.4697 -5 13.4697 -5 13.4697 -5C13.4696 -5 13.4696 -5 13.4696 -5C13.4696 -5 13.4695 -5 13.4695 -5C13.4695 -5 13.4695 -5 13.4695 -5C13.4694 -5 13.4694 -5 13.4694 -5C13.4694 -5 13.4694 -5 13.4693 -5C13.4693 -5 13.4693 -5 13.4693 -5C13.4693 -5 13.4692 -5 13.4692 -5C13.4692 -5 13.4692 -5 13.4692 -5C13.4691 -5 13.4691 -5 13.4691 -5C13.4691 -5 13.4691 -5 13.469 -5C13.469 -5 13.469 -5 13.469 -5C13.4689 -5 13.4689 -5 13.4689 -5C13.4689 -5 13.4689 -5 13.4688 -5C13.4688 -5 13.4688 -5 13.4688 -5C13.4688 -5 13.4688 -5 13.4687 -5C13.4687 -5 13.4687 -5 13.4687 -5C13.4687 -5 13.4686 -5 13.4686 -5C13.4686 -5 13.4686 -5 13.4686 -5C13.4685 -5 13.4685 -5 13.4685 -5C13.4685 -5 13.4685 -5 13.4684 -5C13.4684 -5 13.4684 -5 13.4684 -5C13.4684 -5 13.4683 -5 13.4683 -5C13.4683 -5 13.4683 -5 13.4683 -5C13.4683 -5 13.4682 -5 13.4682 -5C13.4682 -5 13.4682 -5 13.4682 -5C13.4681 -5 13.4681 -5 13.4681 -5C13.4681 -5 13.4681 -5 13.468 -5C13.468 -5 13.468 -5 13.468 -5C13.468 -5 13.468 -5 13.4679 -5C13.4679 -5 13.4679 -5 13.4679 -5C13.4679 -5 13.4679 -5 13.4678 -5C13.4678 -5 13.4678 -5 13.4678 -5C13.4678 -5 13.4677 -5 13.4677 -5C13.4677 -5 13.4677 -5 13.4677 -5C13.4677 -5 13.4676 -5 13.4676 -5C13.4676 -5 13.4676 -5 13.4676 -5C13.4676 -5 13.4675 -5 13.4675 -5C13.4675 -5 13.4675 -5 13.4675 -5C13.4675 -5 13.4674 -5 13.4674 -5C13.4674 -5 13.4674 -5 13.4674 -5C13.4674 -5 13.4673 -5 13.4673 -5C13.4673 -5 13.4673 -5 13.4673 -5C13.4673 -5 13.4672 -5 13.4672 -5C13.4672 -5 13.4672 -5 13.4672 -5C13.4672 -5 13.4671 -5 13.4671 -5C13.4671 -5 13.4671 -5 13.4671 -5C13.4671 -5 13.4671 -5 13.467 -5C13.467 -5 13.467 -5 13.467 -5C13.467 -5 13.467 -5 13.4669 -5C13.4669 -5 13.4669 -5 13.4669 -5C13.4669 -5 13.4669 -5 13.4669 -5C13.4668 -5 13.4668 -5 13.4668 -5C13.4668 -5 13.4668 -5 13.4668 -5C13.4667 -5 13.4667 -5 13.4667 -5C13.4667 -5 13.4667 -5 13.4667 -5C13.4667 -5 13.4666 -5 13.4666 -5C13.4666 -5 13.4666 -5 13.4666 -5C13.4666 -5 13.4666 -5 13.4665 -5C13.4665 -5 13.4665 -5 13.4665 -5C13.4665 -5 13.4665 -5 13.4665 -5C13.4665 -5 13.4664 -5 13.4664 -5C13.4664 -5 13.4664 -5 13.4664 -5C13.4664 -5 13.4664 -5 13.4663 -5C13.4663 -5 13.4663 -5 13.4663 -5C13.4663 -5 13.4663 -5 13.4663 -5C13.4663 -5 13.4662 -5 13.4662 -5C13.4662 -5 13.4662 -5 13.4662 -5C13.4662 -5 13.4662 -5 13.4662 -5C13.4661 -5 13.4661 -5 13.4661 -5C13.4661 -5 13.4661 -5 13.4661 -5C13.4661 -5 13.4661 -5 13.466 -5C13.466 -5 13.466 -5 13.466 -5C13.466 -5 13.466 -5 13.466 -5C13.466 -5 13.466 -5 13.4659 -5C13.4659 -5 13.4659 -5 13.4659 -5C13.4659 -5 13.4659 -5 13.4659 -5C13.4659 -5 13.4659 -5 13.4658 -5C13.4658 -5 13.4658 -5 13.4658 -5C13.4658 -5 13.4658 -5 13.4658 -5C13.4658 -5 13.4658 -5 13.4657 -5C13.4657 -5 13.4657 -5 13.4657 -5C13.4657 -5 13.4657 -5 13.4657 -5C13.4657 -5 13.4657 -5 13.4657 -5C13.4656 -5 13.4656 -5 13.4656 -5C13.4656 -5 13.4656 -5 13.4656 -5C13.4656 -5 13.4656 -5 13.4656 -5C13.4656 -5 13.4655 -5 13.4655 -5C13.4655 -5 13.4655 -5 13.4655 -5C13.4655 -5 13.4655 -5 13.4655 -5C13.4655 -5 13.4655 -5 13.4655 -5C13.4654 -5 13.4654 -5 13.4654 -5C13.4654 -5 13.4654 -5 13.4654 -5C13.4654 -5 13.4654 -5 13.4654 -5C13.4654 -5 13.4654 -5 13.4654 -5C13.4653 -5 13.4653 -5 13.4653 -5C13.4653 -5 13.4653 -5 13.4653 -5C13.4653 -5 13.4653 -5 13.4653 -5V5C13.4653 5 13.4653 5 13.4653 5C13.4653 5 13.4653 5 13.4653 5C13.4653 5 13.4653 5 13.4654 5C13.4654 5 13.4654 5 13.4654 5C13.4654 5 13.4654 5 13.4654 5C13.4654 5 13.4654 5 13.4654 5C13.4654 5 13.4654 5 13.4655 5C13.4655 5 13.4655 5 13.4655 5C13.4655 5 13.4655 5 13.4655 5C13.4655 5 13.4655 5 13.4655 5C13.4655 5 13.4656 5 13.4656 5C13.4656 5 13.4656 5 13.4656 5C13.4656 5 13.4656 5 13.4656 5C13.4656 5 13.4656 5 13.4657 5C13.4657 5 13.4657 5 13.4657 5C13.4657 5 13.4657 5 13.4657 5C13.4657 5 13.4657 5 13.4657 5C13.4658 5 13.4658 5 13.4658 5C13.4658 5 13.4658 5 13.4658 5C13.4658 5 13.4658 5 13.4658 5C13.4659 5 13.4659 5 13.4659 5C13.4659 5 13.4659 5 13.4659 5C13.4659 5 13.4659 5 13.4659 5C13.466 5 13.466 5 13.466 5C13.466 5 13.466 5 13.466 5C13.466 5 13.466 5 13.466 5C13.4661 5 13.4661 5 13.4661 5C13.4661 5 13.4661 5 13.4661 5C13.4661 5 13.4661 5 13.4662 5C13.4662 5 13.4662 5 13.4662 5C13.4662 5 13.4662 5 13.4662 5C13.4662 5 13.4663 5 13.4663 5C13.4663 5 13.4663 5 13.4663 5C13.4663 5 13.4663 5 13.4663 5C13.4664 5 13.4664 5 13.4664 5C13.4664 5 13.4664 5 13.4664 5C13.4664 5 13.4665 5 13.4665 5C13.4665 5 13.4665 5 13.4665 5C13.4665 5 13.4665 5 13.4665 5C13.4666 5 13.4666 5 13.4666 5C13.4666 5 13.4666 5 13.4666 5C13.4666 5 13.4667 5 13.4667 5C13.4667 5 13.4667 5 13.4667 5C13.4667 5 13.4667 5 13.4668 5C13.4668 5 13.4668 5 13.4668 5C13.4668 5 13.4668 5 13.4669 5C13.4669 5 13.4669 5 13.4669 5C13.4669 5 13.4669 5 13.4669 5C13.467 5 13.467 5 13.467 5C13.467 5 13.467 5 13.467 5C13.4671 5 13.4671 5 13.4671 5C13.4671 5 13.4671 5 13.4671 5C13.4671 5 13.4672 5 13.4672 5C13.4672 5 13.4672 5 13.4672 5C13.4672 5 13.4673 5 13.4673 5C13.4673 5 13.4673 5 13.4673 5C13.4673 5 13.4674 5 13.4674 5C13.4674 5 13.4674 5 13.4674 5C13.4674 5 13.4675 5 13.4675 5C13.4675 5 13.4675 5 13.4675 5C13.4675 5 13.4676 5 13.4676 5C13.4676 5 13.4676 5 13.4676 5C13.4676 5 13.4677 5 13.4677 5C13.4677 5 13.4677 5 13.4677 5C13.4677 5 13.4678 5 13.4678 5C13.4678 5 13.4678 5 13.4678 5C13.4679 5 13.4679 5 13.4679 5C13.4679 5 13.4679 5 13.4679 5C13.468 5 13.468 5 13.468 5C13.468 5 13.468 5 13.468 5C13.4681 5 13.4681 5 13.4681 5C13.4681 5 13.4681 5 13.4682 5C13.4682 5 13.4682 5 13.4682 5C13.4682 5 13.4683 5 13.4683 5C13.4683 5 13.4683 5 13.4683 5C13.4683 5 13.4684 5 13.4684 5C13.4684 5 13.4684 5 13.4684 5C13.4685 5 13.4685 5 13.4685 5C13.4685 5 13.4685 5 13.4686 5C13.4686 5 13.4686 5 13.4686 5C13.4686 5 13.4687 5 13.4687 5C13.4687 5 13.4687 5 13.4687 5C13.4688 5 13.4688 5 13.4688 5C13.4688 5 13.4688 5 13.4688 5C13.4689 5 13.4689 5 13.4689 5C13.4689 5 13.4689 5 13.469 5C13.469 5 13.469 5 13.469 5C13.4691 5 13.4691 5 13.4691 5C13.4691 5 13.4691 5 13.4692 5C13.4692 5 13.4692 5 13.4692 5C13.4692 5 13.4693 5 13.4693 5C13.4693 5 13.4693 5 13.4693 5C13.4694 5 13.4694 5 13.4694 5C13.4694 5 13.4694 5 13.4695 5C13.4695 5 13.4695 5 13.4695 5C13.4695 5 13.4696 5 13.4696 5C13.4696 5 13.4696 5 13.4697 5C13.4697 5 13.4697 5 13.4697 5C13.4697 5 13.4698 5 13.4698 5C13.4698 5 13.4698 5 13.4698 5C13.4699 5 13.4699 5 13.4699 5C13.4699 5 13.47 5 13.47 5C13.47 5 13.47 5 13.47 5C13.4701 5 13.4701 5 13.4701 5C13.4701 5 13.4702 5 13.4702 5C13.4702 5 13.4702 5 13.4702 5C13.4703 5 13.4703 5 13.4703 5C13.4703 5 13.4704 5 13.4704 5C13.4704 5 13.4704 5 13.4704 5C13.4705 5 13.4705 5 13.4705 5C13.4705 5 13.4706 5 13.4706 5C13.4706 5 13.4706 5 13.4707 5C13.4707 5 13.4707 5 13.4707 5C13.4707 5 13.4708 5 13.4708 5C13.4708 5 13.4708 5 13.4709 5C13.4709 5 13.4709 5 13.4709 5C13.471 5 13.471 5 13.471 5C13.471 5 13.4711 5 13.4711 5C13.4711 5 13.4711 5 13.4711 5C13.4712 5 13.4712 5 13.4712 5C13.4712 5 13.4713 5 13.4713 5C13.4713 5 13.4713 5 13.4714 5C13.4714 5 13.4714 5 13.4714 5C13.4715 5 13.4715 5 13.4715 5C13.4715 5 13.4716 5 13.4716 5C13.4716 5 13.4716 5 13.4716 5C13.4717 5 13.4717 5 13.4717 5C13.4717 5 13.4718 5 13.4718 5C13.4718 5 13.4718 5 13.4719 5C13.4719 5 13.4719 5 13.4719 5C13.472 5 13.472 5 13.472 5C13.472 5 13.4721 5 13.4721 5C13.4721 5 13.4721 5 13.4722 5C13.4722 5 13.4722 5 13.4722 5C13.4723 5 13.4723 5 13.4723 5C13.4723 5 13.4724 5 13.4724 5C13.4724 5 13.4724 5 13.4725 5C13.4725 5 13.4725 5 13.4725 5C13.4726 5 13.4726 5 13.4726 5C13.4726 5 13.4727 5 13.4727 5C13.4727 5 13.4727 5 13.4728 5C13.4728 5 13.4728 5 13.4728 5C13.4729 5 13.4729 5 13.4729 5C13.473 5 13.473 5 13.473 5C13.473 5 13.4731 5 13.4731 5C13.4731 5 13.4731 5 13.4732 5C13.4732 5 13.4732 5 13.4732 5C13.4733 5 13.4733 5 13.4733 5C13.4733 5 13.4734 5 13.4734 5C13.4734 5 13.4734 5 13.4735 5C13.4735 5 13.4735 5 13.4736 5C13.4736 5 13.4736 5 13.4736 5C13.4737 5 13.4737 5 13.4737 5C13.4737 5 13.4738 5 13.4738 5C13.4738 5 13.4738 5 13.4739 5C13.4739 5 13.4739 5 13.4739 5C13.474 5 13.474 5 13.474 5C13.4741 5 13.4741 5 13.4741 5C13.4741 5 13.4742 5 13.4742 5C13.4742 5 13.4742 5 13.4743 5C13.4743 5 13.4743 5 13.4744 5C13.4744 5 13.4744 5 13.4744 5C13.4745 5 13.4745 5 13.4745 5C13.4745 5 13.4746 5 13.4746 5C13.4746 5 13.4746 5 13.4747 5C13.4747 5 13.4747 5 13.4748 5C13.4748 5 13.4748 5 13.4748 5C13.4749 5 13.4749 5 13.4749 5C13.475 5 13.475 5 13.475 5C13.475 5 13.4751 5 13.4751 5C13.4751 5 13.4751 5 13.4752 5C13.4752 5 13.4752 5 13.4753 5C13.4753 5 13.4753 5 13.4753 5C13.4754 5 13.4754 5 13.4754 5C13.4754 5 13.4755 5 13.4755 5C13.4755 5 13.4756 5 13.4756 5C13.4756 5 13.4756 5 13.4757 5C13.4757 5 13.4757 5 13.4758 5C13.4758 5 13.4758 5 13.4758 5C13.4759 5 13.4759 5 13.4759 5C13.476 5 13.476 5 13.476 5C13.476 5 13.4761 5 13.4761 5C13.4761 5 13.4761 5 13.4762 5C13.4762 5 13.4762 5 13.4763 5C13.4763 5 13.4763 5 13.4763 5C13.4764 5 13.4764 5 13.4764 5C13.4765 5 13.4765 5 13.4765 5C13.4765 5 13.4766 5 13.4766 5C13.4766 5 13.4767 5 13.4767 5C13.4767 5 13.4767 5 13.4768 5C13.4768 5 13.4768 5 13.4769 5C13.4769 5 13.4769 5 13.4769 5C13.477 5 13.477 5 13.477 5C13.4771 5 13.4771 5 13.4771 5C13.4771 5 13.4772 5 13.4772 5C13.4772 5 13.4773 5 13.4773 5C13.4773 5 13.4774 5 13.4774 5C13.4774 5 13.4774 5 13.4775 5C13.4775 5 13.4775 5 13.4776 5C13.4776 5 13.4776 5 13.4776 5C13.4777 5 13.4777 5 13.4777 5C13.4778 5 13.4778 5 13.4778 5C13.4778 5 13.4779 5 13.4779 5C13.4779 5 13.478 5 13.478 5C13.478 5 13.478 5 13.4781 5C13.4781 5 13.4781 5 13.4782 5C13.4782 5 13.4782 5 13.4783 5C13.4783 5 13.4783 5 13.4783 5C13.4784 5 13.4784 5 13.4784 5C13.4785 5 13.4785 5 13.4785 5C13.4785 5 13.4786 5 13.4786 5C13.4786 5 13.4787 5 13.4787 5C13.4787 5 13.4788 5 13.4788 5C13.4788 5 13.4788 5 13.4789 5C13.4789 5 13.4789 5 13.479 5C13.479 5 13.479 5 13.479 5C13.4791 5 13.4791 5 13.4791 5C13.4792 5 13.4792 5 13.4792 5C13.4793 5 13.4793 5 13.4793 5C13.4793 5 13.4794 5 13.4794 5C13.4794 5 13.4795 5 13.4795 5C13.4795 5 13.4796 5 13.4796 5C13.4796 5 13.4796 5 13.4797 5C13.4797 5 13.4797 5 13.4798 5C13.4798 5 13.4798 5 13.4799 5C13.4799 5 13.4799 5 13.4799 5C13.48 5 13.48 5 13.48 5C13.4801 5 13.4801 5 13.4801 5C13.4801 5 13.4802 5 13.4802 5C13.4802 5 13.4803 5 13.4803 5C13.4803 5 13.4804 5 13.4804 5C13.4804 5 13.4804 5 13.4805 5C13.4805 5 13.4805 5 13.4806 5C13.4806 5 13.4806 5 13.4807 5C13.4807 5 13.4807 5 13.4807 5C13.4808 5 13.4808 5 13.4808 5C13.4809 5 13.4809 5 13.4809 5C13.481 5 13.481 5 13.481 5C13.481 5 13.4811 5 13.4811 5C13.4811 5 13.4812 5 13.4812 5C13.4812 5 13.4813 5 13.4813 5C13.4813 5 13.4813 5 13.4814 5C13.4814 5 13.4814 5 13.4815 5C13.4815 5 13.4815 5 13.4816 5C13.4816 5 13.4816 5 13.4816 5C13.4817 5 13.4817 5 13.4817 5C13.4818 5 13.4818 5 13.4818 5C13.4819 5 13.4819 5 13.4819 5C13.4819 5 13.482 5 13.482 5C13.482 5 13.4821 5 13.4821 5C13.4821 5 13.4822 5 13.4822 5C13.4822 5 13.4823 5 13.4823 5C13.4823 5 13.4823 5 13.4824 5C13.4824 5 13.4824 5 13.4825 5C13.4825 5 13.4825 5 13.4826 5C13.4826 5 13.4826 5 13.4826 5C13.4827 5 13.4827 5 13.4827 5C13.4828 5 13.4828 5 13.4828 5C13.4829 5 13.4829 5 13.4829 5C13.4829 5 13.483 5 13.483 5C13.483 5 13.4831 5 13.4831 5C13.4831 5 13.4832 5 13.4832 5C13.4832 5 13.4832 5 13.4833 5C13.4833 5 13.4833 5 13.4834 5C13.4834 5 13.4834 5 13.4835 5C13.4835 5 13.4835 5 13.4835 5C13.4836 5 13.4836 5 13.4836 5C13.4837 5 13.4837 5 13.4837 5C13.4838 5 13.4838 5 13.4838 5C13.4838 5 13.4839 5 13.4839 5C13.4839 5 13.484 5 13.484 5C13.484 5 13.4841 5 13.4841 5C13.4841 5 13.4841 5 13.4842 5C13.4842 5 13.4842 5 13.4843 5C13.4843 5 13.4843 5 13.4844 5C13.4844 5 13.4844 5 13.4844 5C13.4845 5 13.4845 5 13.4845 5C13.4846 5 13.4846 5 13.4846 5C13.4847 5 13.4847 5 13.4847 5C13.4847 5 13.4848 5 13.4848 5C13.4848 5 13.4849 5 13.4849 5C13.4849 5 13.485 5 13.485 5C13.485 5 13.485 5 13.4851 5C13.4851 5 13.4851 5 13.4852 5C13.4852 5 13.4852 5 13.4853 5C13.4853 5 13.4853 5 13.4853 5C13.4854 5 13.4854 5 13.4854 5C13.4855 5 13.4855 5 13.4855 5C13.4856 5 13.4856 5 13.4856 5C13.4856 5 13.4857 5 13.4857 5C13.4857 5 13.4858 5 13.4858 5C13.4858 5 13.4859 5 13.4859 5C13.4859 5 13.4859 5 13.486 5C13.486 5 13.486 5 13.4861 5C13.4861 5 13.4861 5 13.4861 5C13.4862 5 13.4862 5 13.4862 5C13.4863 5 13.4863 5 13.4863 5C13.4864 5 13.4864 5 13.4864 5C13.4864 5 13.4865 5 13.4865 5C13.4865 5 13.4866 5 13.4866 5C13.4866 5 13.4867 5 13.4867 5C13.4867 5 13.4867 5 13.4868 5C13.4868 5 13.4868 5 13.4869 5C13.4869 5 13.4869 5 13.4869 5C13.487 5 13.487 5 13.487 5C13.4871 5 13.4871 5 13.4871 5C13.4871 5 13.4872 5 13.4872 5C13.4872 5 13.4873 5 13.4873 5C13.4873 5 13.4874 5 13.4874 5C13.4874 5 13.4874 5 13.4875 5C13.4875 5 13.4875 5 13.4876 5C13.4876 5 13.4876 5 13.4876 5C13.4877 5 13.4877 5 13.4877 5C13.4878 5 13.4878 5 13.4878 5C13.4878 5 13.4879 5 13.4879 5C13.4879 5 13.488 5 13.488 5C13.488 5 13.4881 5 13.4881 5C13.4881 5 13.4881 5 13.4882 5C13.4882 5 13.4882 5 13.4883 5C13.4883 5 13.4883 5 13.4883 5C13.4884 5 13.4884 5 13.4884 5C13.4885 5 13.4885 5 13.4885 5C13.4885 5 13.4886 5 13.4886 5C13.4886 5 13.4887 5 13.4887 5C13.4887 5 13.4887 5 13.4888 5C13.4888 5 13.4888 5 13.4889 5C13.4889 5 13.4889 5 13.4889 5C13.489 5 13.489 5 13.489 5C13.4891 5 13.4891 5 13.4891 5C13.4891 5 13.4892 5 13.4892 5C13.4892 5 13.4892 5 13.4893 5C13.4893 5 13.4893 5 13.4894 5C13.4894 5 13.4894 5 13.4894 5C13.4895 5 13.4895 5 13.4895 5C13.4896 5 13.4896 5 13.4896 5C13.4896 5 13.4897 5 13.4897 5C13.4897 5 13.4898 5 13.4898 5C13.4898 5 13.4898 5 13.4899 5C13.4899 5 13.4899 5 13.4899 5C13.49 5 13.49 5 13.49 5C13.4901 5 13.4901 5 13.4901 5C13.4901 5 13.4902 5 13.4902 5C13.4902 5 13.4903 5 13.4903 5C13.4903 5 13.4903 5 13.4904 5C13.4904 5 13.4904 5 13.4904 5C13.4905 5 13.4905 5 13.4905 5C13.4906 5 13.4906 5 13.4906 5C13.4906 5 13.4907 5 13.4907 5C13.4907 5 13.4907 5 13.4908 5C13.4908 5 13.4908 5 13.4909 5C13.4909 5 13.4909 5 13.4909 5C13.491 5 13.491 5 13.491 5C13.491 5 13.4911 5 13.4911 5C13.4911 5 13.4912 5 13.4912 5C13.4912 5 13.4912 5 13.4913 5C13.4913 5 13.4913 5 13.4913 5C13.4914 5 13.4914 5 13.4914 5C13.4914 5 13.4915 5 13.4915 5C13.4915 5 13.4916 5 13.4916 5C13.4916 5 13.4916 5 13.4917 5C13.4917 5 13.4917 5 13.4917 5C13.4918 5 13.4918 5 13.4918 5C13.4918 5 13.4919 5 13.4919 5C13.4919 5 13.4919 5 13.492 5C13.492 5 13.492 5 13.4921 5C13.4921 5 13.4921 5 13.4921 5C13.4922 5 13.4922 5 13.4922 5C13.4922 5 13.4923 5 13.4923 5C13.4923 5 13.4923 5 13.4924 5C13.4924 5 13.4924 5 13.4924 5C13.4925 5 13.4925 5 13.4925 5C13.4925 5 13.4926 5 13.4926 5C13.4926 5 13.4926 5 13.4927 5C13.4927 5 13.4927 5 13.4927 5C13.4928 5 13.4928 5 13.4928 5C13.4928 5 13.4929 5 13.4929 5C13.4929 5 13.4929 5 13.493 5C13.493 5 13.493 5 13.493 5C13.4931 5 13.4931 5 13.4931 5C13.4931 5 13.4932 5 13.4932 5C13.4932 5 13.4932 5 13.4933 5C13.4933 5 13.4933 5 13.4933 5C13.4934 5 13.4934 5 13.4934 5C13.4934 5 13.4935 5 13.4935 5C13.4935 5 13.4935 5 13.4936 5C13.4936 5 13.4936 5 13.4936 5C13.4937 5 13.4937 5 13.4937 5C13.4937 5 13.4938 5 13.4938 5C13.4938 5 13.4938 5 13.4939 5C13.4939 5 13.4939 5 13.4939 5C13.494 5 13.494 5 13.494 5C13.494 5 13.494 5 13.4941 5C13.4941 5 13.4941 5 13.4941 5C13.4942 5 13.4942 5 13.4942 5C13.4942 5 13.4943 5 13.4943 5C13.4943 5 13.4943 5 13.4944 5C13.4944 5 13.4944 5 13.4944 5C13.4944 5 13.4945 5 13.4945 5C13.4945 5 13.4945 5 13.4946 5C13.4946 5 13.4946 5 13.4946 5C13.4947 5 13.4947 5 13.4947 5C13.4947 5 13.4947 5 13.4948 5C13.4948 5 13.4948 5 13.4948 5C13.4949 5 13.4949 5 13.4949 5C13.4949 5 13.4949 5 13.495 5C13.495 5 13.495 5 13.495 5C13.4951 5 13.4951 5 13.4951 5C13.4951 5 13.4952 5 13.4952 5C13.4952 5 13.4952 5 13.4952 5C13.4953 5 13.4953 5 13.4953 5C13.4953 5 13.4953 5 13.4954 5C13.4954 5 13.4954 5 13.4954 5C13.4955 5 13.4955 5 13.4955 5C13.4955 5 13.4955 5 13.4956 5C13.4956 5 13.4956 5 13.4956 5C13.4957 5 13.4957 5 13.4957 5C13.4957 5 13.4957 5 13.4958 5C13.4958 5 13.4958 5 13.4958 5C13.4958 5 13.4959 5 13.4959 5C13.4959 5 13.4959 5 13.4959 5C13.496 5 13.496 5 13.496 5C13.496 5 13.4961 5 13.4961 5C13.4961 5 13.4961 5 13.4961 5C13.4962 5 13.4962 5 13.4962 5C13.4962 5 13.4962 5 13.4963 5C13.4963 5 13.4963 5 13.4963 5C13.4963 5 13.4964 5 13.4964 5C13.4964 5 13.4964 5 13.4964 5C13.4965 5 13.4965 5 13.4965 5C13.4965 5 13.4965 5 13.4966 5C13.4966 5 13.4966 5 13.4966 5C13.4966 5 13.4967 5 13.4967 5C13.4967 5 13.4967 5 13.4967 5C13.4968 5 13.4968 5 13.4968 5C13.4968 5 13.4968 5 13.4968 5C13.4969 5 13.4969 5 13.4969 5C13.4969 5 13.4969 5 13.497 5C13.497 5 13.497 5 13.497 5C13.497 5 13.4971 5 13.4971 5C13.4971 5 13.4971 5 13.4971 5C13.4971 5 13.4972 5 13.4972 5C13.4972 5 13.4972 5 13.4972 5C13.4973 5 13.4973 5 13.4973 5C13.4973 5 13.4973 5 13.4973 5C13.4974 5 13.4974 5 13.4974 5C13.4974 5 13.4974 5 13.4975 5C13.4975 5 13.4975 5 13.4975 5C13.4975 5 13.4975 5 13.4976 5C13.4976 5 13.4976 5 13.4976 5C13.4976 5 13.4976 5 13.4977 5C13.4977 5 13.4977 5 13.4977 5C13.4977 5 13.4977 5 13.4978 5C13.4978 5 13.4978 5 13.4978 5C13.4978 5 13.4978 5 13.4979 5C13.4979 5 13.4979 5 13.4979 5C13.4979 5 13.4979 5 13.498 5C13.498 5 13.498 5 13.498 5C13.498 5 13.498 5 13.4981 5C13.4981 5 13.4981 5 13.4981 5C13.4981 5 13.4981 5 13.4982 5C13.4982 5 13.4982 5 13.4982 5C13.4982 5 13.4982 5 13.4983 5C13.4983 5 13.4983 5 13.4983 5C13.4983 5 13.4983 5 13.4983 5C13.4984 5 13.4984 5 13.4984 5C13.4984 5 13.4984 5 13.4984 5C13.4984 5 13.4985 5 13.4985 5C13.4985 5 13.4985 5 13.4985 5C13.4985 5 13.4986 5 13.4986 5C13.4986 5 13.4986 5 13.4986 5C13.4986 5 13.4986 5 13.4987 5C13.4987 5 13.4987 5 13.4987 5C13.4987 5 13.4987 5 13.4987 5C13.4987 5 13.4988 5 13.4988 5C13.4988 5 13.4988 5 13.4988 5C13.4988 5 13.4988 5 13.4989 5C13.4989 5 13.4989 5 13.4989 5C13.4989 5 13.4989 5 13.4989 5C13.499 5 13.499 5 13.499 5C13.499 5 13.499 5 13.499 5C13.499 5 13.499 5 13.4991 5C13.4991 5 13.4991 5 13.4991 5C13.4991 5 13.4991 5 13.4991 5C13.4991 5 13.4992 5 13.4992 5C13.4992 5 13.4992 5 13.4992 5C13.4992 5 13.4992 5 13.4992 5C13.4993 5 13.4993 5 13.4993 5C13.4993 5 13.4993 5 13.4993 5C13.4993 5 13.4993 5 13.4993 5C13.4994 5 13.4994 5 13.4994 5C13.4994 5 13.4994 5 13.4994 5C13.4994 5 13.4994 5 13.4994 5C13.4995 5 13.4995 5 13.4995 5C13.4995 5 13.4995 5 13.4995 5C13.4995 5 13.4995 5 13.4995 5C13.4996 5 13.4996 5 13.4996 5C13.4996 5 13.4996 5 13.4996 5C13.4996 5 13.4996 5 13.4996 5C13.4996 5 13.4997 5 13.4997 5C13.4997 5 13.4997 5 13.4997 5C13.4997 5 13.4997 5 13.4997 5C13.4997 5 13.4997 5 13.4997 5C13.4998 5 13.4998 5 13.4998 5C13.4998 5 13.4998 5 13.4998 5C13.4998 5 13.4998 5 13.4998 5C13.4998 5 13.4998 5 13.4999 5C13.4999 5 13.4999 5 13.4999 5C13.4999 5 13.4999 5 13.4999 5C13.4999 5 13.4999 5 13.4999 5C13.4999 5 13.4999 5 13.5 5C13.5 5 13.5 5 13.5 5C13.5 5 13.5 5 13.5 5V-5ZM13.4653 -5C13.4653 -5 13.4652 -5 13.4652 -5C13.4652 -5 13.4651 -5 13.4651 -5C13.465 -5 13.465 -5 13.465 -5C13.4649 -5 13.4649 -5 13.4649 -5C13.4648 -5 13.4648 -5 13.4648 -5C13.4647 -5 13.4647 -5 13.4647 -5C13.4646 -5 13.4646 -5 13.4646 -5C13.4645 -5 13.4645 -5 13.4645 -5C13.4644 -5 13.4644 -5 13.4644 -5C13.4643 -5 13.4643 -5 13.4643 -5C13.4642 -5 13.4642 -5 13.4642 -5C13.4641 -5 13.4641 -5 13.4641 -5C13.464 -5 13.464 -5 13.464 -5C13.4639 -5 13.4639 -5 13.4639 -5C13.4638 -5 13.4638 -5 13.4638 -5C13.4637 -5 13.4637 -5 13.4637 -5C13.4636 -5 13.4636 -5 13.4636 -5C13.4635 -5 13.4635 -5 13.4635 -5C13.4634 -5 13.4634 -5 13.4634 -5C13.4633 -5 13.4633 -5 13.4633 -5C13.4632 -5 13.4632 -5 13.4632 -5C13.4631 -5 13.4631 -5 13.4631 -5C13.463 -5 13.463 -5 13.463 -5C13.4629 -5 13.4629 -5 13.4629 -5C13.4628 -5 13.4628 -5 13.4628 -5C13.4627 -5 13.4627 -5 13.4627 -5C13.4626 -5 13.4626 -5 13.4626 -5C13.4625 -5 13.4625 -5 13.4625 -5C13.4624 -5 13.4624 -5 13.4624 -5C13.4623 -5 13.4623 -5 13.4623 -5C13.4622 -5 13.4622 -5 13.4622 -5C13.4621 -5 13.4621 -5 13.4621 -5C13.462 -5 13.462 -5 13.462 -5C13.4619 -5 13.4619 -5 13.4619 -5C13.4618 -5 13.4618 -5 13.4618 -5C13.4617 -5 13.4617 -5 13.4617 -5C13.4616 -5 13.4616 -5 13.4616 -5C13.4615 -5 13.4615 -5 13.4615 -5C13.4615 -5 13.4614 -5 13.4614 -5C13.4614 -5 13.4613 -5 13.4613 -5C13.4613 -5 13.4612 -5 13.4612 -5C13.4612 -5 13.4611 -5 13.4611 -5C13.4611 -5 13.461 -5 13.461 -5C13.461 -5 13.4609 -5 13.4609 -5C13.4609 -5 13.4608 -5 13.4608 -5C13.4608 -5 13.4607 -5 13.4607 -5C13.4607 -5 13.4606 -5 13.4606 -5C13.4606 -5 13.4605 -5 13.4605 -5C13.4605 -5 13.4604 -5 13.4604 -5C13.4604 -5 13.4603 -5 13.4603 -5C13.4603 -5 13.4602 -5 13.4602 -5C13.4602 -5 13.4601 -5 13.4601 -5C13.4601 -5 13.46 -5 13.46 -5C13.46 -5 13.46 -5 13.4599 -5C13.4599 -5 13.4599 -5 13.4598 -5C13.4598 -5 13.4598 -5 13.4597 -5C13.4597 -5 13.4597 -5 13.4596 -5C13.4596 -5 13.4596 -5 13.4595 -5C13.4595 -5 13.4595 -5 13.4594 -5C13.4594 -5 13.4594 -5 13.4593 -5C13.4593 -5 13.4593 -5 13.4592 -5C13.4592 -5 13.4592 -5 13.4591 -5C13.4591 -5 13.4591 -5 13.459 -5C13.459 -5 13.459 -5 13.459 -5C13.4589 -5 13.4589 -5 13.4589 -5C13.4588 -5 13.4588 -5 13.4588 -5C13.4587 -5 13.4587 -5 13.4587 -5C13.4586 -5 13.4586 -5 13.4586 -5C13.4585 -5 13.4585 -5 13.4585 -5C13.4584 -5 13.4584 -5 13.4584 -5C13.4583 -5 13.4583 -5 13.4583 -5C13.4582 -5 13.4582 -5 13.4582 -5C13.4581 -5 13.4581 -5 13.4581 -5C13.4581 -5 13.458 -5 13.458 -5C13.458 -5 13.4579 -5 13.4579 -5C13.4579 -5 13.4578 -5 13.4578 -5C13.4578 -5 13.4577 -5 13.4577 -5C13.4577 -5 13.4576 -5 13.4576 -5C13.4576 -5 13.4575 -5 13.4575 -5C13.4575 -5 13.4574 -5 13.4574 -5C13.4574 -5 13.4574 -5 13.4573 -5C13.4573 -5 13.4573 -5 13.4572 -5C13.4572 -5 13.4572 -5 13.4571 -5C13.4571 -5 13.4571 -5 13.457 -5C13.457 -5 13.457 -5 13.4569 -5C13.4569 -5 13.4569 -5 13.4568 -5C13.4568 -5 13.4568 -5 13.4568 -5C13.4567 -5 13.4567 -5 13.4567 -5C13.4566 -5 13.4566 -5 13.4566 -5C13.4565 -5 13.4565 -5 13.4565 -5C13.4564 -5 13.4564 -5 13.4564 -5C13.4563 -5 13.4563 -5 13.4563 -5C13.4562 -5 13.4562 -5 13.4562 -5C13.4562 -5 13.4561 -5 13.4561 -5C13.4561 -5 13.456 -5 13.456 -5C13.456 -5 13.4559 -5 13.4559 -5C13.4559 -5 13.4558 -5 13.4558 -5C13.4558 -5 13.4557 -5 13.4557 -5C13.4557 -5 13.4557 -5 13.4556 -5C13.4556 -5 13.4556 -5 13.4555 -5C13.4555 -5 13.4555 -5 13.4554 -5C13.4554 -5 13.4554 -5 13.4553 -5C13.4553 -5 13.4553 -5 13.4552 -5C13.4552 -5 13.4552 -5 13.4552 -5C13.4551 -5 13.4551 -5 13.4551 -5C13.455 -5 13.455 -5 13.455 -5C13.4549 -5 13.4549 -5 13.4549 -5C13.4548 -5 13.4548 -5 13.4548 -5C13.4548 -5 13.4547 -5 13.4547 -5C13.4547 -5 13.4546 -5 13.4546 -5C13.4546 -5 13.4545 -5 13.4545 -5C13.4545 -5 13.4544 -5 13.4544 -5C13.4544 -5 13.4543 -5 13.4543 -5C13.4543 -5 13.4543 -5 13.4542 -5C13.4542 -5 13.4542 -5 13.4541 -5C13.4541 -5 13.4541 -5 13.454 -5C13.454 -5 13.454 -5 13.4539 -5C13.4539 -5 13.4539 -5 13.4539 -5C13.4538 -5 13.4538 -5 13.4538 -5C13.4537 -5 13.4537 -5 13.4537 -5C13.4536 -5 13.4536 -5 13.4536 -5C13.4535 -5 13.4535 -5 13.4535 -5C13.4535 -5 13.4534 -5 13.4534 -5C13.4534 -5 13.4533 -5 13.4533 -5C13.4533 -5 13.4532 -5 13.4532 -5C13.4532 -5 13.4531 -5 13.4531 -5C13.4531 -5 13.4531 -5 13.453 -5C13.453 -5 13.453 -5 13.4529 -5C13.4529 -5 13.4529 -5 13.4528 -5C13.4528 -5 13.4528 -5 13.4527 -5C13.4527 -5 13.4527 -5 13.4527 -5C13.4526 -5 13.4526 -5 13.4526 -5C13.4525 -5 13.4525 -5 13.4525 -5C13.4524 -5 13.4524 -5 13.4524 -5C13.4524 -5 13.4523 -5 13.4523 -5C13.4523 -5 13.4522 -5 13.4522 -5C13.4522 -5 13.4521 -5 13.4521 -5C13.4521 -5 13.452 -5 13.452 -5C13.452 -5 13.452 -5 13.4519 -5C13.4519 -5 13.4519 -5 13.4518 -5C13.4518 -5 13.4518 -5 13.4517 -5C13.4517 -5 13.4517 -5 13.4517 -5C13.4516 -5 13.4516 -5 13.4516 -5C13.4515 -5 13.4515 -5 13.4515 -5C13.4514 -5 13.4514 -5 13.4514 -5C13.4513 -5 13.4513 -5 13.4513 -5C13.4513 -5 13.4512 -5 13.4512 -5C13.4512 -5 13.4511 -5 13.4511 -5C13.4511 -5 13.451 -5 13.451 -5C13.451 -5 13.451 -5 13.4509 -5C13.4509 -5 13.4509 -5 13.4508 -5C13.4508 -5 13.4508 -5 13.4507 -5C13.4507 -5 13.4507 -5 13.4507 -5C13.4506 -5 13.4506 -5 13.4506 -5C13.4505 -5 13.4505 -5 13.4505 -5C13.4504 -5 13.4504 -5 13.4504 -5C13.4504 -5 13.4503 -5 13.4503 -5C13.4503 -5 13.4502 -5 13.4502 -5C13.4502 -5 13.4501 -5 13.4501 -5C13.4501 -5 13.4501 -5 13.45 -5C13.45 -5 13.45 -5 13.4499 -5C13.4499 -5 13.4499 -5 13.4498 -5C13.4498 -5 13.4498 -5 13.4498 -5C13.4497 -5 13.4497 -5 13.4497 -5C13.4496 -5 13.4496 -5 13.4496 -5C13.4495 -5 13.4495 -5 13.4495 -5C13.4495 -5 13.4494 -5 13.4494 -5C13.4494 -5 13.4493 -5 13.4493 -5C13.4493 -5 13.4493 -5 13.4492 -5C13.4492 -5 13.4492 -5 13.4491 -5C13.4491 -5 13.4491 -5 13.449 -5C13.449 -5 13.449 -5 13.449 -5C13.4489 -5 13.4489 -5 13.4489 -5C13.4488 -5 13.4488 -5 13.4488 -5C13.4487 -5 13.4487 -5 13.4487 -5C13.4487 -5 13.4486 -5 13.4486 -5C13.4486 -5 13.4485 -5 13.4485 -5C13.4485 -5 13.4484 -5 13.4484 -5C13.4484 -5 13.4484 -5 13.4483 -5C13.4483 -5 13.4483 -5 13.4482 -5C13.4482 -5 13.4482 -5 13.4482 -5C13.4481 -5 13.4481 -5 13.4481 -5C13.448 -5 13.448 -5 13.448 -5C13.4479 -5 13.4479 -5 13.4479 -5C13.4479 -5 13.4478 -5 13.4478 -5C13.4478 -5 13.4477 -5 13.4477 -5C13.4477 -5 13.4477 -5 13.4476 -5C13.4476 -5 13.4476 -5 13.4475 -5C13.4475 -5 13.4475 -5 13.4474 -5C13.4474 -5 13.4474 -5 13.4474 -5C13.4473 -5 13.4473 -5 13.4473 -5C13.4472 -5 13.4472 -5 13.4472 -5C13.4472 -5 13.4471 -5 13.4471 -5C13.4471 -5 13.447 -5 13.447 -5C13.447 -5 13.4469 -5 13.4469 -5C13.4469 -5 13.4469 -5 13.4468 -5C13.4468 -5 13.4468 -5 13.4467 -5C13.4467 -5 13.4467 -5 13.4467 -5C13.4466 -5 13.4466 -5 13.4466 -5C13.4465 -5 13.4465 -5 13.4465 -5C13.4465 -5 13.4464 -5 13.4464 -5C13.4464 -5 13.4463 -5 13.4463 -5C13.4463 -5 13.4462 -5 13.4462 -5C13.4462 -5 13.4462 -5 13.4461 -5C13.4461 -5 13.4461 -5 13.446 -5C13.446 -5 13.446 -5 13.446 -5C13.4459 -5 13.4459 -5 13.4459 -5C13.4458 -5 13.4458 -5 13.4458 -5C13.4458 -5 13.4457 -5 13.4457 -5C13.4457 -5 13.4456 -5 13.4456 -5C13.4456 -5 13.4456 -5 13.4455 -5C13.4455 -5 13.4455 -5 13.4454 -5C13.4454 -5 13.4454 -5 13.4453 -5C13.4453 -5 13.4453 -5 13.4453 -5C13.4452 -5 13.4452 -5 13.4452 -5C13.4451 -5 13.4451 -5 13.4451 -5C13.4451 -5 13.445 -5 13.445 -5C13.445 -5 13.4449 -5 13.4449 -5C13.4449 -5 13.4449 -5 13.4448 -5C13.4448 -5 13.4448 -5 13.4447 -5C13.4447 -5 13.4447 -5 13.4447 -5C13.4446 -5 13.4446 -5 13.4446 -5C13.4445 -5 13.4445 -5 13.4445 -5C13.4445 -5 13.4444 -5 13.4444 -5C13.4444 -5 13.4443 -5 13.4443 -5C13.4443 -5 13.4443 -5 13.4442 -5C13.4442 -5 13.4442 -5 13.4441 -5C13.4441 -5 13.4441 -5 13.4441 -5C13.444 -5 13.444 -5 13.444 -5C13.4439 -5 13.4439 -5 13.4439 -5C13.4439 -5 13.4438 -5 13.4438 -5C13.4438 -5 13.4437 -5 13.4437 -5C13.4437 -5 13.4437 -5 13.4436 -5C13.4436 -5 13.4436 -5 13.4435 -5C13.4435 -5 13.4435 -5 13.4434 -5C13.4434 -5 13.4434 -5 13.4434 -5C13.4433 -5 13.4433 -5 13.4433 -5C13.4433 -5 13.4432 -5 13.4432 -5C13.4432 -5 13.4431 -5 13.4431 -5C13.4431 -5 13.4431 -5 13.443 -5C13.443 -5 13.443 -5 13.4429 -5C13.4429 -5 13.4429 -5 13.4429 -5C13.4428 -5 13.4428 -5 13.4428 -5C13.4427 -5 13.4427 -5 13.4427 -5C13.4427 -5 13.4426 -5 13.4426 -5C13.4426 -5 13.4425 -5 13.4425 -5C13.4425 -5 13.4425 -5 13.4424 -5C13.4424 -5 13.4424 -5 13.4423 -5C13.4423 -5 13.4423 -5 13.4423 -5C13.4422 -5 13.4422 -5 13.4422 -5C13.4421 -5 13.4421 -5 13.4421 -5C13.4421 -5 13.442 -5 13.442 -5C13.442 -5 13.4419 -5 13.4419 -5C13.4419 -5 13.4419 -5 13.4418 -5C13.4418 -5 13.4418 -5 13.4417 -5C13.4417 -5 13.4417 -5 13.4417 -5C13.4416 -5 13.4416 -5 13.4416 -5C13.4415 -5 13.4415 -5 13.4415 -5C13.4415 -5 13.4414 -5 13.4414 -5C13.4414 -5 13.4413 -5 13.4413 -5C13.4413 -5 13.4413 -5 13.4412 -5C13.4412 -5 13.4412 -5 13.4412 -5C13.4411 -5 13.4411 -5 13.4411 -5C13.441 -5 13.441 -5 13.441 -5C13.441 -5 13.4409 -5 13.4409 -5C13.4409 -5 13.4408 -5 13.4408 -5C13.4408 -5 13.4408 -5 13.4407 -5C13.4407 -5 13.4407 -5 13.4406 -5C13.4406 -5 13.4406 -5 13.4406 -5C13.4405 -5 13.4405 -5 13.4405 -5C13.4404 -5 13.4404 -5 13.4404 -5C13.4404 -5 13.4403 -5 13.4403 -5C13.4403 -5 13.4403 -5 13.4402 -5C13.4402 -5 13.4402 -5 13.4401 -5C13.4401 -5 13.4401 -5 13.4401 -5C13.44 -5 13.44 -5 13.44 -5C13.4399 -5 13.4399 -5 13.4399 -5C13.4399 -5 13.4398 -5 13.4398 -5C13.4398 -5 13.4397 -5 13.4397 -5C13.4397 -5 13.4397 -5 13.4396 -5C13.4396 -5 13.4396 -5 13.4396 -5C13.4395 -5 13.4395 -5 13.4395 -5C13.4394 -5 13.4394 -5 13.4394 -5C13.4394 -5 13.4393 -5 13.4393 -5C13.4393 -5 13.4392 -5 13.4392 -5C13.4392 -5 13.4392 -5 13.4391 -5C13.4391 -5 13.4391 -5 13.4391 -5C13.439 -5 13.439 -5 13.439 -5C13.4389 -5 13.4389 -5 13.4389 -5C13.4389 -5 13.4388 -5 13.4388 -5C13.4388 -5 13.4387 -5 13.4387 -5C13.4387 -5 13.4387 -5 13.4386 -5C13.4386 -5 13.4386 -5 13.4386 -5C13.4385 -5 13.4385 -5 13.4385 -5C13.4384 -5 13.4384 -5 13.4384 -5C13.4384 -5 13.4383 -5 13.4383 -5C13.4383 -5 13.4382 -5 13.4382 -5C13.4382 -5 13.4382 -5 13.4381 -5C13.4381 -5 13.4381 -5 13.4381 -5C13.438 -5 13.438 -5 13.438 -5C13.4379 -5 13.4379 -5 13.4379 -5C13.4379 -5 13.4378 -5 13.4378 -5C13.4378 -5 13.4377 -5 13.4377 -5C13.4377 -5 13.4377 -5 13.4376 -5C13.4376 -5 13.4376 -5 13.4376 -5C13.4375 -5 13.4375 -5 13.4375 -5C13.4374 -5 13.4374 -5 13.4374 -5C13.4374 -5 13.4373 -5 13.4373 -5C13.4373 -5 13.4373 -5 13.4372 -5C13.4372 -5 13.4372 -5 13.4371 -5C13.4371 -5 13.4371 -5 13.4371 -5C13.437 -5 13.437 -5 13.437 -5C13.437 -5 13.4369 -5 13.4369 -5C13.4369 -5 13.4368 -5 13.4368 -5C13.4368 -5 13.4368 -5 13.4367 -5C13.4367 -5 13.4367 -5 13.4366 -5C13.4366 -5 13.4366 -5 13.4366 -5C13.4365 -5 13.4365 -5 13.4365 -5C13.4365 -5 13.4364 -5 13.4364 -5C13.4364 -5 13.4363 -5 13.4363 -5C13.4363 -5 13.4363 -5 13.4362 -5C13.4362 -5 13.4362 -5 13.4362 -5C13.4361 -5 13.4361 -5 13.4361 -5C13.436 -5 13.436 -5 13.436 -5C13.436 -5 13.4359 -5 13.4359 -5C13.4359 -5 13.4359 -5 13.4358 -5C13.4358 -5 13.4358 -5 13.4357 -5C13.4357 -5 13.4357 -5 13.4357 -5C13.4356 -5 13.4356 -5 13.4356 -5C13.4356 -5 13.4355 -5 13.4355 -5C13.4355 -5 13.4354 -5 13.4354 -5C13.4354 -5 13.4354 -5 13.4353 -5C13.4353 -5 13.4353 -5 13.4353 -5C13.4352 -5 13.4352 -5 13.4352 -5C13.4351 -5 13.4351 -5 13.4351 -5C13.4351 -5 13.435 -5 13.435 -5C13.435 -5 13.435 -5 13.4349 -5C13.4349 -5 13.4349 -5 13.4348 -5C13.4348 -5 13.4348 -5 13.4348 -5C13.4347 -5 13.4347 -5 13.4347 -5C13.4347 -5 13.4346 -5 13.4346 -5C13.4346 -5 13.4345 -5 13.4345 -5C13.4345 -5 13.4345 -5 13.4344 -5C13.4344 -5 13.4344 -5 13.4344 -5C13.4343 -5 13.4343 -5 13.4343 -5C13.4342 -5 13.4342 -5 13.4342 -5C13.4342 -5 13.4341 -5 13.4341 -5C13.4341 -5 13.4341 -5 13.434 -5C13.434 -5 13.434 -5 13.4339 -5C13.4339 -5 13.4339 -5 13.4339 -5C13.4338 -5 13.4338 -5 13.4338 -5C13.4338 -5 13.4337 -5 13.4337 -5C13.4337 -5 13.4336 -5 13.4336 -5C13.4336 -5 13.4336 -5 13.4335 -5C13.4335 -5 13.4335 -5 13.4335 -5C13.4334 -5 13.4334 -5 13.4334 -5C13.4333 -5 13.4333 -5 13.4333 -5C13.4333 -5 13.4332 -5 13.4332 -5C13.4332 -5 13.4332 -5 13.4331 -5C13.4331 -5 13.4331 -5 13.4331 -5C13.433 -5 13.433 -5 13.433 -5C13.4329 -5 13.4329 -5 13.4329 -5C13.4329 -5 13.4328 -5 13.4328 -5C13.4328 -5 13.4328 -5 13.4327 -5C13.4327 -5 13.4327 -5 13.4326 -5C13.4326 -5 13.4326 -5 13.4326 -5C13.4325 -5 13.4325 -5 13.4325 -5C13.4325 -5 13.4324 -5 13.4324 -5C13.4324 -5 13.4324 -5 13.4323 -5C13.4323 -5 13.4323 -5 13.4322 -5C13.4322 -5 13.4322 -5 13.4322 -5C13.4321 -5 13.4321 -5 13.4321 -5C13.4321 -5 13.432 -5 13.432 -5C13.432 -5 13.4319 -5 13.4319 -5C13.4319 -5 13.4319 -5 13.4318 -5C13.4318 -5 13.4318 -5 13.4318 -5C13.4317 -5 13.4317 -5 13.4317 -5C13.4317 -5 13.4316 -5 13.4316 -5C13.4316 -5 13.4315 -5 13.4315 -5C13.4315 -5 13.4315 -5 13.4314 -5C13.4314 -5 13.4314 -5 13.4314 -5C13.4313 -5 13.4313 -5 13.4313 -5C13.4312 -5 13.4312 -5 13.4312 -5C13.4312 -5 13.4311 -5 13.4311 -5C13.4311 -5 13.4311 -5 13.431 -5C13.431 -5 13.431 -5 13.431 -5C13.4309 -5 13.4309 -5 13.4309 -5C13.4308 -5 13.4308 -5 13.4308 -5C13.4308 -5 13.4307 -5 13.4307 -5C13.4307 -5 13.4307 -5 13.4306 -5C13.4306 -5 13.4306 -5 13.4305 -5C13.4305 -5 13.4305 -5 13.4305 -5C13.4304 -5 13.4304 -5 13.4304 -5C13.4304 -5 13.4303 -5 13.4303 -5C13.4303 -5 13.4303 -5 13.4302 -5C13.4302 -5 13.4302 -5 13.4301 -5C13.4301 -5 13.4301 -5 13.4301 -5C13.43 -5 13.43 -5 13.43 -5C13.43 -5 13.4299 -5 13.4299 -5C13.4299 -5 13.4299 -5 13.4298 -5C13.4298 -5 13.4298 -5 13.4297 -5C13.4297 -5 13.4297 -5 13.4297 -5C13.4296 -5 13.4296 -5 13.4296 -5C13.4296 -5 13.4295 -5 13.4295 -5C13.4295 -5 13.4295 -5 13.4294 -5C13.4294 -5 13.4294 -5 13.4293 -5C13.4293 -5 13.4293 -5 13.4293 -5C13.4292 -5 13.4292 -5 13.4292 -5C13.4292 -5 13.4291 -5 13.4291 -5C13.4291 -5 13.4291 -5 13.429 -5C13.429 -5 13.429 -5 13.4289 -5C13.4289 -5 13.4289 -5 13.4289 -5C13.4288 -5 13.4288 -5 13.4288 -5C13.4288 -5 13.4287 -5 13.4287 -5C13.4287 -5 13.4287 -5 13.4286 -5C13.4286 -5 13.4286 -5 13.4285 -5C13.4285 -5 13.4285 -5 13.4285 -5C13.4284 -5 13.4284 -5 13.4284 -5C13.4284 -5 13.4283 -5 13.4283 -5C13.4283 -5 13.4283 -5 13.4282 -5C13.4282 -5 13.4282 -5 13.4281 -5C13.4281 -5 13.4281 -5 13.4281 -5C13.428 -5 13.428 -5 13.428 -5C13.428 -5 13.4279 -5 13.4279 -5C13.4279 -5 13.4279 -5 13.4278 -5C13.4278 -5 13.4278 -5 13.4277 -5C13.4277 -5 13.4277 -5 13.4277 -5C13.4276 -5 13.4276 -5 13.4276 -5C13.4276 -5 13.4275 -5 13.4275 -5C13.4275 -5 13.4275 -5 13.4274 -5C13.4274 -5 13.4274 -5 13.4273 -5C13.4273 -5 13.4273 -5 13.4273 -5C13.4272 -5 13.4272 -5 13.4272 -5C13.4272 -5 13.4271 -5 13.4271 -5C13.4271 -5 13.4271 -5 13.427 -5C13.427 -5 13.427 -5 13.427 -5C13.4269 -5 13.4269 -5 13.4269 -5C13.4268 -5 13.4268 -5 13.4268 -5C13.4268 -5 13.4267 -5 13.4267 -5C13.4267 -5 13.4267 -5 13.4266 -5C13.4266 -5 13.4266 -5 13.4266 -5C13.4265 -5 13.4265 -5 13.4265 -5C13.4264 -5 13.4264 -5 13.4264 -5C13.4264 -5 13.4263 -5 13.4263 -5C13.4263 -5 13.4263 -5 13.4262 -5C13.4262 -5 13.4262 -5 13.4262 -5C13.4261 -5 13.4261 -5 13.4261 -5C13.4261 -5 13.426 -5 13.426 -5C13.426 -5 13.4259 -5 13.4259 -5C13.4259 -5 13.4259 -5 13.4258 -5C13.4258 -5 13.4258 -5 13.4258 -5C13.4257 -5 13.4257 -5 13.4257 -5C13.4257 -5 13.4256 -5 13.4256 -5C13.4256 -5 13.4255 -5 13.4255 -5C13.4255 -5 13.4255 -5 13.4254 -5C13.4254 -5 13.4254 -5 13.4254 -5C13.4253 -5 13.4253 -5 13.4253 -5C13.4253 -5 13.4252 -5 13.4252 -5C13.4252 -5 13.4251 -5 13.4251 -5C13.4251 -5 13.4251 -5 13.425 -5C13.425 -5 13.425 -5 13.425 -5C13.4249 -5 13.4249 -5 13.4249 -5C13.4249 -5 13.4248 -5 13.4248 -5C13.4248 -5 13.4248 -5 13.4247 -5C13.4247 -5 13.4247 -5 13.4246 -5C13.4246 -5 13.4246 -5 13.4246 -5C13.4245 -5 13.4245 -5 13.4245 -5C13.4245 -5 13.4244 -5 13.4244 -5C13.4244 -5 13.4244 -5 13.4243 -5C13.4243 -5 13.4243 -5 13.4243 -5C13.4242 -5 13.4242 -5 13.4242 -5C13.4241 -5 13.4241 -5 13.4241 -5C13.4241 -5 13.424 -5 13.424 -5C13.424 -5 13.424 -5 13.4239 -5C13.4239 -5 13.4239 -5 13.4239 -5C13.4238 -5 13.4238 -5 13.4238 -5C13.4237 -5 13.4237 -5 13.4237 -5C13.4237 -5 13.4236 -5 13.4236 -5C13.4236 -5 13.4236 -5 13.4235 -5C13.4235 -5 13.4235 -5 13.4235 -5C13.4234 -5 13.4234 -5 13.4234 -5C13.4234 -5 13.4233 -5 13.4233 -5C13.4233 -5 13.4232 -5 13.4232 -5C13.4232 -5 13.4232 -5 13.4231 -5C13.4231 -5 13.4231 -5 13.4231 -5C13.423 -5 13.423 -5 13.423 -5C13.423 -5 13.4229 -5 13.4229 -5C13.4229 -5 13.4229 -5 13.4228 -5C13.4228 -5 13.4228 -5 13.4227 -5C13.4227 -5 13.4227 -5 13.4227 -5C13.4226 -5 13.4226 -5 13.4226 -5C13.4226 -5 13.4225 -5 13.4225 -5C13.4225 -5 13.4225 -5 13.4224 -5C13.4224 -5 13.4224 -5 13.4224 -5C13.4223 -5 13.4223 -5 13.4223 -5C13.4222 -5 13.4222 -5 13.4222 -5C13.4222 -5 13.4221 -5 13.4221 -5C13.4221 -5 13.4221 -5 13.422 -5C13.422 -5 13.422 -5 13.422 -5C13.4219 -5 13.4219 -5 13.4219 -5C13.4218 -5 13.4218 -5 13.4218 -5C13.4218 -5 13.4217 -5 13.4217 -5C13.4217 -5 13.4217 -5 13.4216 -5C13.4216 -5 13.4216 -5 13.4216 -5C13.4215 -5 13.4215 -5 13.4215 -5C13.4215 -5 13.4214 -5 13.4214 -5C13.4214 -5 13.4213 -5 13.4213 -5C13.4213 -5 13.4213 -5 13.4212 -5C13.4212 -5 13.4212 -5 13.4212 -5C13.4211 -5 13.4211 -5 13.4211 -5C13.4211 -5 13.421 -5 13.421 -5C13.421 -5 13.421 -5 13.4209 -5V5C13.421 5 13.421 5 13.421 5C13.421 5 13.4211 5 13.4211 5C13.4211 5 13.4211 5 13.4212 5C13.4212 5 13.4212 5 13.4212 5C13.4213 5 13.4213 5 13.4213 5C13.4213 5 13.4214 5 13.4214 5C13.4214 5 13.4215 5 13.4215 5C13.4215 5 13.4215 5 13.4216 5C13.4216 5 13.4216 5 13.4216 5C13.4217 5 13.4217 5 13.4217 5C13.4217 5 13.4218 5 13.4218 5C13.4218 5 13.4218 5 13.4219 5C13.4219 5 13.4219 5 13.422 5C13.422 5 13.422 5 13.422 5C13.4221 5 13.4221 5 13.4221 5C13.4221 5 13.4222 5 13.4222 5C13.4222 5 13.4222 5 13.4223 5C13.4223 5 13.4223 5 13.4224 5C13.4224 5 13.4224 5 13.4224 5C13.4225 5 13.4225 5 13.4225 5C13.4225 5 13.4226 5 13.4226 5C13.4226 5 13.4226 5 13.4227 5C13.4227 5 13.4227 5 13.4227 5C13.4228 5 13.4228 5 13.4228 5C13.4229 5 13.4229 5 13.4229 5C13.4229 5 13.423 5 13.423 5C13.423 5 13.423 5 13.4231 5C13.4231 5 13.4231 5 13.4231 5C13.4232 5 13.4232 5 13.4232 5C13.4232 5 13.4233 5 13.4233 5C13.4233 5 13.4234 5 13.4234 5C13.4234 5 13.4234 5 13.4235 5C13.4235 5 13.4235 5 13.4235 5C13.4236 5 13.4236 5 13.4236 5C13.4236 5 13.4237 5 13.4237 5C13.4237 5 13.4237 5 13.4238 5C13.4238 5 13.4238 5 13.4239 5C13.4239 5 13.4239 5 13.4239 5C13.424 5 13.424 5 13.424 5C13.424 5 13.4241 5 13.4241 5C13.4241 5 13.4241 5 13.4242 5C13.4242 5 13.4242 5 13.4243 5C13.4243 5 13.4243 5 13.4243 5C13.4244 5 13.4244 5 13.4244 5C13.4244 5 13.4245 5 13.4245 5C13.4245 5 13.4245 5 13.4246 5C13.4246 5 13.4246 5 13.4246 5C13.4247 5 13.4247 5 13.4247 5C13.4248 5 13.4248 5 13.4248 5C13.4248 5 13.4249 5 13.4249 5C13.4249 5 13.4249 5 13.425 5C13.425 5 13.425 5 13.425 5C13.4251 5 13.4251 5 13.4251 5C13.4251 5 13.4252 5 13.4252 5C13.4252 5 13.4253 5 13.4253 5C13.4253 5 13.4253 5 13.4254 5C13.4254 5 13.4254 5 13.4254 5C13.4255 5 13.4255 5 13.4255 5C13.4255 5 13.4256 5 13.4256 5C13.4256 5 13.4257 5 13.4257 5C13.4257 5 13.4257 5 13.4258 5C13.4258 5 13.4258 5 13.4258 5C13.4259 5 13.4259 5 13.4259 5C13.4259 5 13.426 5 13.426 5C13.426 5 13.4261 5 13.4261 5C13.4261 5 13.4261 5 13.4262 5C13.4262 5 13.4262 5 13.4262 5C13.4263 5 13.4263 5 13.4263 5C13.4263 5 13.4264 5 13.4264 5C13.4264 5 13.4264 5 13.4265 5C13.4265 5 13.4265 5 13.4266 5C13.4266 5 13.4266 5 13.4266 5C13.4267 5 13.4267 5 13.4267 5C13.4267 5 13.4268 5 13.4268 5C13.4268 5 13.4268 5 13.4269 5C13.4269 5 13.4269 5 13.427 5C13.427 5 13.427 5 13.427 5C13.4271 5 13.4271 5 13.4271 5C13.4271 5 13.4272 5 13.4272 5C13.4272 5 13.4272 5 13.4273 5C13.4273 5 13.4273 5 13.4273 5C13.4274 5 13.4274 5 13.4274 5C13.4275 5 13.4275 5 13.4275 5C13.4275 5 13.4276 5 13.4276 5C13.4276 5 13.4276 5 13.4277 5C13.4277 5 13.4277 5 13.4277 5C13.4278 5 13.4278 5 13.4278 5C13.4279 5 13.4279 5 13.4279 5C13.4279 5 13.428 5 13.428 5C13.428 5 13.428 5 13.4281 5C13.4281 5 13.4281 5 13.4281 5C13.4282 5 13.4282 5 13.4282 5C13.4283 5 13.4283 5 13.4283 5C13.4283 5 13.4284 5 13.4284 5C13.4284 5 13.4284 5 13.4285 5C13.4285 5 13.4285 5 13.4285 5C13.4286 5 13.4286 5 13.4286 5C13.4287 5 13.4287 5 13.4287 5C13.4287 5 13.4288 5 13.4288 5C13.4288 5 13.4288 5 13.4289 5C13.4289 5 13.4289 5 13.4289 5C13.429 5 13.429 5 13.429 5C13.4291 5 13.4291 5 13.4291 5C13.4291 5 13.4292 5 13.4292 5C13.4292 5 13.4292 5 13.4293 5C13.4293 5 13.4293 5 13.4293 5C13.4294 5 13.4294 5 13.4294 5C13.4295 5 13.4295 5 13.4295 5C13.4295 5 13.4296 5 13.4296 5C13.4296 5 13.4296 5 13.4297 5C13.4297 5 13.4297 5 13.4297 5C13.4298 5 13.4298 5 13.4298 5C13.4299 5 13.4299 5 13.4299 5C13.4299 5 13.43 5 13.43 5C13.43 5 13.43 5 13.4301 5C13.4301 5 13.4301 5 13.4301 5C13.4302 5 13.4302 5 13.4302 5C13.4303 5 13.4303 5 13.4303 5C13.4303 5 13.4304 5 13.4304 5C13.4304 5 13.4304 5 13.4305 5C13.4305 5 13.4305 5 13.4305 5C13.4306 5 13.4306 5 13.4306 5C13.4307 5 13.4307 5 13.4307 5C13.4307 5 13.4308 5 13.4308 5C13.4308 5 13.4308 5 13.4309 5C13.4309 5 13.4309 5 13.431 5C13.431 5 13.431 5 13.431 5C13.4311 5 13.4311 5 13.4311 5C13.4311 5 13.4312 5 13.4312 5C13.4312 5 13.4312 5 13.4313 5C13.4313 5 13.4313 5 13.4314 5C13.4314 5 13.4314 5 13.4314 5C13.4315 5 13.4315 5 13.4315 5C13.4315 5 13.4316 5 13.4316 5C13.4316 5 13.4317 5 13.4317 5C13.4317 5 13.4317 5 13.4318 5C13.4318 5 13.4318 5 13.4318 5C13.4319 5 13.4319 5 13.4319 5C13.4319 5 13.432 5 13.432 5C13.432 5 13.4321 5 13.4321 5C13.4321 5 13.4321 5 13.4322 5C13.4322 5 13.4322 5 13.4322 5C13.4323 5 13.4323 5 13.4323 5C13.4324 5 13.4324 5 13.4324 5C13.4324 5 13.4325 5 13.4325 5C13.4325 5 13.4325 5 13.4326 5C13.4326 5 13.4326 5 13.4326 5C13.4327 5 13.4327 5 13.4327 5C13.4328 5 13.4328 5 13.4328 5C13.4328 5 13.4329 5 13.4329 5C13.4329 5 13.4329 5 13.433 5C13.433 5 13.433 5 13.4331 5C13.4331 5 13.4331 5 13.4331 5C13.4332 5 13.4332 5 13.4332 5C13.4332 5 13.4333 5 13.4333 5C13.4333 5 13.4333 5 13.4334 5C13.4334 5 13.4334 5 13.4335 5C13.4335 5 13.4335 5 13.4335 5C13.4336 5 13.4336 5 13.4336 5C13.4336 5 13.4337 5 13.4337 5C13.4337 5 13.4338 5 13.4338 5C13.4338 5 13.4338 5 13.4339 5C13.4339 5 13.4339 5 13.4339 5C13.434 5 13.434 5 13.434 5C13.4341 5 13.4341 5 13.4341 5C13.4341 5 13.4342 5 13.4342 5C13.4342 5 13.4342 5 13.4343 5C13.4343 5 13.4343 5 13.4344 5C13.4344 5 13.4344 5 13.4344 5C13.4345 5 13.4345 5 13.4345 5C13.4345 5 13.4346 5 13.4346 5C13.4346 5 13.4347 5 13.4347 5C13.4347 5 13.4347 5 13.4348 5C13.4348 5 13.4348 5 13.4348 5C13.4349 5 13.4349 5 13.4349 5C13.435 5 13.435 5 13.435 5C13.435 5 13.4351 5 13.4351 5C13.4351 5 13.4351 5 13.4352 5C13.4352 5 13.4352 5 13.4353 5C13.4353 5 13.4353 5 13.4353 5C13.4354 5 13.4354 5 13.4354 5C13.4354 5 13.4355 5 13.4355 5C13.4355 5 13.4356 5 13.4356 5C13.4356 5 13.4356 5 13.4357 5C13.4357 5 13.4357 5 13.4357 5C13.4358 5 13.4358 5 13.4358 5C13.4359 5 13.4359 5 13.4359 5C13.4359 5 13.436 5 13.436 5C13.436 5 13.436 5 13.4361 5C13.4361 5 13.4361 5 13.4362 5C13.4362 5 13.4362 5 13.4362 5C13.4363 5 13.4363 5 13.4363 5C13.4363 5 13.4364 5 13.4364 5C13.4364 5 13.4365 5 13.4365 5C13.4365 5 13.4365 5 13.4366 5C13.4366 5 13.4366 5 13.4366 5C13.4367 5 13.4367 5 13.4367 5C13.4368 5 13.4368 5 13.4368 5C13.4368 5 13.4369 5 13.4369 5C13.4369 5 13.437 5 13.437 5C13.437 5 13.437 5 13.4371 5C13.4371 5 13.4371 5 13.4371 5C13.4372 5 13.4372 5 13.4372 5C13.4373 5 13.4373 5 13.4373 5C13.4373 5 13.4374 5 13.4374 5C13.4374 5 13.4374 5 13.4375 5C13.4375 5 13.4375 5 13.4376 5C13.4376 5 13.4376 5 13.4376 5C13.4377 5 13.4377 5 13.4377 5C13.4377 5 13.4378 5 13.4378 5C13.4378 5 13.4379 5 13.4379 5C13.4379 5 13.4379 5 13.438 5C13.438 5 13.438 5 13.4381 5C13.4381 5 13.4381 5 13.4381 5C13.4382 5 13.4382 5 13.4382 5C13.4382 5 13.4383 5 13.4383 5C13.4383 5 13.4384 5 13.4384 5C13.4384 5 13.4384 5 13.4385 5C13.4385 5 13.4385 5 13.4386 5C13.4386 5 13.4386 5 13.4386 5C13.4387 5 13.4387 5 13.4387 5C13.4387 5 13.4388 5 13.4388 5C13.4388 5 13.4389 5 13.4389 5C13.4389 5 13.4389 5 13.439 5C13.439 5 13.439 5 13.4391 5C13.4391 5 13.4391 5 13.4391 5C13.4392 5 13.4392 5 13.4392 5C13.4392 5 13.4393 5 13.4393 5C13.4393 5 13.4394 5 13.4394 5C13.4394 5 13.4394 5 13.4395 5C13.4395 5 13.4395 5 13.4396 5C13.4396 5 13.4396 5 13.4396 5C13.4397 5 13.4397 5 13.4397 5C13.4397 5 13.4398 5 13.4398 5C13.4398 5 13.4399 5 13.4399 5C13.4399 5 13.4399 5 13.44 5C13.44 5 13.44 5 13.4401 5C13.4401 5 13.4401 5 13.4401 5C13.4402 5 13.4402 5 13.4402 5C13.4403 5 13.4403 5 13.4403 5C13.4403 5 13.4404 5 13.4404 5C13.4404 5 13.4404 5 13.4405 5C13.4405 5 13.4405 5 13.4406 5C13.4406 5 13.4406 5 13.4406 5C13.4407 5 13.4407 5 13.4407 5C13.4408 5 13.4408 5 13.4408 5C13.4408 5 13.4409 5 13.4409 5C13.4409 5 13.441 5 13.441 5C13.441 5 13.441 5 13.4411 5C13.4411 5 13.4411 5 13.4412 5C13.4412 5 13.4412 5 13.4412 5C13.4413 5 13.4413 5 13.4413 5C13.4413 5 13.4414 5 13.4414 5C13.4414 5 13.4415 5 13.4415 5C13.4415 5 13.4415 5 13.4416 5C13.4416 5 13.4416 5 13.4417 5C13.4417 5 13.4417 5 13.4417 5C13.4418 5 13.4418 5 13.4418 5C13.4419 5 13.4419 5 13.4419 5C13.4419 5 13.442 5 13.442 5C13.442 5 13.4421 5 13.4421 5C13.4421 5 13.4421 5 13.4422 5C13.4422 5 13.4422 5 13.4423 5C13.4423 5 13.4423 5 13.4423 5C13.4424 5 13.4424 5 13.4424 5C13.4425 5 13.4425 5 13.4425 5C13.4425 5 13.4426 5 13.4426 5C13.4426 5 13.4427 5 13.4427 5C13.4427 5 13.4427 5 13.4428 5C13.4428 5 13.4428 5 13.4429 5C13.4429 5 13.4429 5 13.4429 5C13.443 5 13.443 5 13.443 5C13.4431 5 13.4431 5 13.4431 5C13.4431 5 13.4432 5 13.4432 5C13.4432 5 13.4433 5 13.4433 5C13.4433 5 13.4433 5 13.4434 5C13.4434 5 13.4434 5 13.4434 5C13.4435 5 13.4435 5 13.4435 5C13.4436 5 13.4436 5 13.4436 5C13.4437 5 13.4437 5 13.4437 5C13.4437 5 13.4438 5 13.4438 5C13.4438 5 13.4439 5 13.4439 5C13.4439 5 13.4439 5 13.444 5C13.444 5 13.444 5 13.4441 5C13.4441 5 13.4441 5 13.4441 5C13.4442 5 13.4442 5 13.4442 5C13.4443 5 13.4443 5 13.4443 5C13.4443 5 13.4444 5 13.4444 5C13.4444 5 13.4445 5 13.4445 5C13.4445 5 13.4445 5 13.4446 5C13.4446 5 13.4446 5 13.4447 5C13.4447 5 13.4447 5 13.4447 5C13.4448 5 13.4448 5 13.4448 5C13.4449 5 13.4449 5 13.4449 5C13.4449 5 13.445 5 13.445 5C13.445 5 13.4451 5 13.4451 5C13.4451 5 13.4451 5 13.4452 5C13.4452 5 13.4452 5 13.4453 5C13.4453 5 13.4453 5 13.4453 5C13.4454 5 13.4454 5 13.4454 5C13.4455 5 13.4455 5 13.4455 5C13.4456 5 13.4456 5 13.4456 5C13.4456 5 13.4457 5 13.4457 5C13.4457 5 13.4458 5 13.4458 5C13.4458 5 13.4458 5 13.4459 5C13.4459 5 13.4459 5 13.446 5C13.446 5 13.446 5 13.446 5C13.4461 5 13.4461 5 13.4461 5C13.4462 5 13.4462 5 13.4462 5C13.4462 5 13.4463 5 13.4463 5C13.4463 5 13.4464 5 13.4464 5C13.4464 5 13.4465 5 13.4465 5C13.4465 5 13.4465 5 13.4466 5C13.4466 5 13.4466 5 13.4467 5C13.4467 5 13.4467 5 13.4467 5C13.4468 5 13.4468 5 13.4468 5C13.4469 5 13.4469 5 13.4469 5C13.4469 5 13.447 5 13.447 5C13.447 5 13.4471 5 13.4471 5C13.4471 5 13.4472 5 13.4472 5C13.4472 5 13.4472 5 13.4473 5C13.4473 5 13.4473 5 13.4474 5C13.4474 5 13.4474 5 13.4474 5C13.4475 5 13.4475 5 13.4475 5C13.4476 5 13.4476 5 13.4476 5C13.4477 5 13.4477 5 13.4477 5C13.4477 5 13.4478 5 13.4478 5C13.4478 5 13.4479 5 13.4479 5C13.4479 5 13.4479 5 13.448 5C13.448 5 13.448 5 13.4481 5C13.4481 5 13.4481 5 13.4482 5C13.4482 5 13.4482 5 13.4482 5C13.4483 5 13.4483 5 13.4483 5C13.4484 5 13.4484 5 13.4484 5C13.4484 5 13.4485 5 13.4485 5C13.4485 5 13.4486 5 13.4486 5C13.4486 5 13.4487 5 13.4487 5C13.4487 5 13.4487 5 13.4488 5C13.4488 5 13.4488 5 13.4489 5C13.4489 5 13.4489 5 13.449 5C13.449 5 13.449 5 13.449 5C13.4491 5 13.4491 5 13.4491 5C13.4492 5 13.4492 5 13.4492 5C13.4493 5 13.4493 5 13.4493 5C13.4493 5 13.4494 5 13.4494 5C13.4494 5 13.4495 5 13.4495 5C13.4495 5 13.4495 5 13.4496 5C13.4496 5 13.4496 5 13.4497 5C13.4497 5 13.4497 5 13.4498 5C13.4498 5 13.4498 5 13.4498 5C13.4499 5 13.4499 5 13.4499 5C13.45 5 13.45 5 13.45 5C13.4501 5 13.4501 5 13.4501 5C13.4501 5 13.4502 5 13.4502 5C13.4502 5 13.4503 5 13.4503 5C13.4503 5 13.4504 5 13.4504 5C13.4504 5 13.4504 5 13.4505 5C13.4505 5 13.4505 5 13.4506 5C13.4506 5 13.4506 5 13.4507 5C13.4507 5 13.4507 5 13.4507 5C13.4508 5 13.4508 5 13.4508 5C13.4509 5 13.4509 5 13.4509 5C13.451 5 13.451 5 13.451 5C13.451 5 13.4511 5 13.4511 5C13.4511 5 13.4512 5 13.4512 5C13.4512 5 13.4513 5 13.4513 5C13.4513 5 13.4513 5 13.4514 5C13.4514 5 13.4514 5 13.4515 5C13.4515 5 13.4515 5 13.4516 5C13.4516 5 13.4516 5 13.4517 5C13.4517 5 13.4517 5 13.4517 5C13.4518 5 13.4518 5 13.4518 5C13.4519 5 13.4519 5 13.4519 5C13.452 5 13.452 5 13.452 5C13.452 5 13.4521 5 13.4521 5C13.4521 5 13.4522 5 13.4522 5C13.4522 5 13.4523 5 13.4523 5C13.4523 5 13.4524 5 13.4524 5C13.4524 5 13.4524 5 13.4525 5C13.4525 5 13.4525 5 13.4526 5C13.4526 5 13.4526 5 13.4527 5C13.4527 5 13.4527 5 13.4527 5C13.4528 5 13.4528 5 13.4528 5C13.4529 5 13.4529 5 13.4529 5C13.453 5 13.453 5 13.453 5C13.4531 5 13.4531 5 13.4531 5C13.4531 5 13.4532 5 13.4532 5C13.4532 5 13.4533 5 13.4533 5C13.4533 5 13.4534 5 13.4534 5C13.4534 5 13.4535 5 13.4535 5C13.4535 5 13.4535 5 13.4536 5C13.4536 5 13.4536 5 13.4537 5C13.4537 5 13.4537 5 13.4538 5C13.4538 5 13.4538 5 13.4539 5C13.4539 5 13.4539 5 13.4539 5C13.454 5 13.454 5 13.454 5C13.4541 5 13.4541 5 13.4541 5C13.4542 5 13.4542 5 13.4542 5C13.4543 5 13.4543 5 13.4543 5C13.4543 5 13.4544 5 13.4544 5C13.4544 5 13.4545 5 13.4545 5C13.4545 5 13.4546 5 13.4546 5C13.4546 5 13.4547 5 13.4547 5C13.4547 5 13.4548 5 13.4548 5C13.4548 5 13.4548 5 13.4549 5C13.4549 5 13.4549 5 13.455 5C13.455 5 13.455 5 13.4551 5C13.4551 5 13.4551 5 13.4552 5C13.4552 5 13.4552 5 13.4552 5C13.4553 5 13.4553 5 13.4553 5C13.4554 5 13.4554 5 13.4554 5C13.4555 5 13.4555 5 13.4555 5C13.4556 5 13.4556 5 13.4556 5C13.4557 5 13.4557 5 13.4557 5C13.4557 5 13.4558 5 13.4558 5C13.4558 5 13.4559 5 13.4559 5C13.4559 5 13.456 5 13.456 5C13.456 5 13.4561 5 13.4561 5C13.4561 5 13.4562 5 13.4562 5C13.4562 5 13.4562 5 13.4563 5C13.4563 5 13.4563 5 13.4564 5C13.4564 5 13.4564 5 13.4565 5C13.4565 5 13.4565 5 13.4566 5C13.4566 5 13.4566 5 13.4567 5C13.4567 5 13.4567 5 13.4568 5C13.4568 5 13.4568 5 13.4568 5C13.4569 5 13.4569 5 13.4569 5C13.457 5 13.457 5 13.457 5C13.4571 5 13.4571 5 13.4571 5C13.4572 5 13.4572 5 13.4572 5C13.4573 5 13.4573 5 13.4573 5C13.4574 5 13.4574 5 13.4574 5C13.4574 5 13.4575 5 13.4575 5C13.4575 5 13.4576 5 13.4576 5C13.4576 5 13.4577 5 13.4577 5C13.4577 5 13.4578 5 13.4578 5C13.4578 5 13.4579 5 13.4579 5C13.4579 5 13.458 5 13.458 5C13.458 5 13.4581 5 13.4581 5C13.4581 5 13.4581 5 13.4582 5C13.4582 5 13.4582 5 13.4583 5C13.4583 5 13.4583 5 13.4584 5C13.4584 5 13.4584 5 13.4585 5C13.4585 5 13.4585 5 13.4586 5C13.4586 5 13.4586 5 13.4587 5C13.4587 5 13.4587 5 13.4588 5C13.4588 5 13.4588 5 13.4589 5C13.4589 5 13.4589 5 13.459 5C13.459 5 13.459 5 13.459 5C13.4591 5 13.4591 5 13.4591 5C13.4592 5 13.4592 5 13.4592 5C13.4593 5 13.4593 5 13.4593 5C13.4594 5 13.4594 5 13.4594 5C13.4595 5 13.4595 5 13.4595 5C13.4596 5 13.4596 5 13.4596 5C13.4597 5 13.4597 5 13.4597 5C13.4598 5 13.4598 5 13.4598 5C13.4599 5 13.4599 5 13.4599 5C13.46 5 13.46 5 13.46 5C13.46 5 13.4601 5 13.4601 5C13.4601 5 13.4602 5 13.4602 5C13.4602 5 13.4603 5 13.4603 5C13.4603 5 13.4604 5 13.4604 5C13.4604 5 13.4605 5 13.4605 5C13.4605 5 13.4606 5 13.4606 5C13.4606 5 13.4607 5 13.4607 5C13.4607 5 13.4608 5 13.4608 5C13.4608 5 13.4609 5 13.4609 5C13.4609 5 13.461 5 13.461 5C13.461 5 13.4611 5 13.4611 5C13.4611 5 13.4612 5 13.4612 5C13.4612 5 13.4613 5 13.4613 5C13.4613 5 13.4614 5 13.4614 5C13.4614 5 13.4615 5 13.4615 5C13.4615 5 13.4615 5 13.4616 5C13.4616 5 13.4616 5 13.4617 5C13.4617 5 13.4617 5 13.4618 5C13.4618 5 13.4618 5 13.4619 5C13.4619 5 13.4619 5 13.462 5C13.462 5 13.462 5 13.4621 5C13.4621 5 13.4621 5 13.4622 5C13.4622 5 13.4622 5 13.4623 5C13.4623 5 13.4623 5 13.4624 5C13.4624 5 13.4624 5 13.4625 5C13.4625 5 13.4625 5 13.4626 5C13.4626 5 13.4626 5 13.4627 5C13.4627 5 13.4627 5 13.4628 5C13.4628 5 13.4628 5 13.4629 5C13.4629 5 13.4629 5 13.463 5C13.463 5 13.463 5 13.4631 5C13.4631 5 13.4631 5 13.4632 5C13.4632 5 13.4632 5 13.4633 5C13.4633 5 13.4633 5 13.4634 5C13.4634 5 13.4634 5 13.4635 5C13.4635 5 13.4635 5 13.4636 5C13.4636 5 13.4636 5 13.4637 5C13.4637 5 13.4637 5 13.4638 5C13.4638 5 13.4638 5 13.4639 5C13.4639 5 13.4639 5 13.464 5C13.464 5 13.464 5 13.4641 5C13.4641 5 13.4641 5 13.4642 5C13.4642 5 13.4642 5 13.4643 5C13.4643 5 13.4643 5 13.4644 5C13.4644 5 13.4644 5 13.4645 5C13.4645 5 13.4645 5 13.4646 5C13.4646 5 13.4646 5 13.4647 5C13.4647 5 13.4647 5 13.4648 5C13.4648 5 13.4648 5 13.4649 5C13.4649 5 13.4649 5 13.465 5C13.465 5 13.465 5 13.4651 5C13.4651 5 13.4652 5 13.4652 5C13.4652 5 13.4653 5 13.4653 5V-5ZM13.3883 -4.99989C2.64196 -4.92966 -5 4.82887 -5 15.4H5C5 9.06193 9.38846 5.02646 13.4536 4.99989L13.3883 -4.99989ZM-5 15.4V28.6H5V15.4H-5ZM-5 28.6C-5 39.1969 2.65941 49 13.4518 49V39C9.4096 39 5 34.9871 5 28.6H-5ZM8.85714 15.4C8.85714 11.465 11.5408 9.40483 13.4835 9.39998L13.4586 -0.599984C4.80578 -0.578425 -1.14286 7.23056 -1.14286 15.4H8.85714ZM13.4587 9.39998C15.4613 9.40494 18.1429 11.4937 18.1429 15.4H28.1429C28.1429 7.20186 22.1458 -0.578542 13.4834 -0.599985L13.4587 9.39998ZM18.1429 15.4V28.6H28.1429V15.4H18.1429ZM18.1429 28.6C18.1429 32.5428 15.4575 34.6 13.5 34.6V44.6C22.1767 44.6 28.1429 36.788 28.1429 28.6H18.1429ZM13.5 34.6H13.4518V44.6H13.5V34.6ZM13.4518 34.6C11.4538 34.6 8.85714 32.6704 8.85714 28.6H-1.14286C-1.14286 36.8672 4.69218 44.6 13.4518 44.6V34.6ZM8.85714 28.6V15.4H-1.14286V28.6H8.85714Z" fill="white" mask="url(#path-1-inside-1_4358_13254)"/>
</g>
<path d="M11.9998 10.8H14.8998V19.5H11.9998V10.8Z" fill="white"/>
</svg>
